<svg xmlns="http://www.w3.org/2000/svg" xmlns:xlink="http://www.w3.org/1999/xlink" width="500" zoomAndPan="magnify" viewBox="0 0 375 374.999991" height="500" preserveAspectRatio="xMidYMid meet" version="1.0"><defs><clipPath id="b0e2e73206"><path d="M 187.5 84 L 346.5 84 L 346.5 243.394531 L 187.5 243.394531 Z M 187.5 84 " clip-rule="nonzero"/></clipPath><clipPath id="391e07731a"><path d="M 198 19.144531 L 300 19.144531 L 300 72 L 198 72 Z M 198 19.144531 " clip-rule="nonzero"/></clipPath><clipPath id="763d7a886c"><path d="M 119 131.296875 L 375 131.296875 L 375 292 L 119 292 Z M 119 131.296875 " clip-rule="nonzero"/></clipPath><clipPath id="126e7bbe4e"><path d="M 156 298 L 214 298 L 214 355.546875 L 156 355.546875 Z M 156 298 " clip-rule="nonzero"/></clipPath><clipPath id="dbe76cba89"><path d="M 236 298 L 294 298 L 294 355.546875 L 236 355.546875 Z M 236 298 " clip-rule="nonzero"/></clipPath><clipPath id="6fdc57946b"><path d="M 187.5 184.507812 L 327 184.507812 L 327 275.257812 L 187.5 275.257812 Z M 187.5 184.507812 " clip-rule="nonzero"/></clipPath><clipPath id="a35f61a2b8"><path d="M 164.15625 307.597656 L 204.539062 307.597656 L 204.539062 347.980469 L 164.15625 347.980469 Z M 164.15625 307.597656 " clip-rule="nonzero"/></clipPath><clipPath id="8464ad2c8d"><path d="M 184.347656 307.597656 C 173.199219 307.597656 164.15625 316.636719 164.15625 327.789062 C 164.15625 338.9375 173.199219 347.980469 184.347656 347.980469 C 195.5 347.980469 204.539062 338.9375 204.539062 327.789062 C 204.539062 316.636719 195.5 307.597656 184.347656 307.597656 Z M 184.347656 307.597656 " clip-rule="nonzero"/></clipPath><clipPath id="6d52ea4b40"><path d="M 245.40625 307.597656 L 285.789062 307.597656 L 285.789062 347.980469 L 245.40625 347.980469 Z M 245.40625 307.597656 " clip-rule="nonzero"/></clipPath><clipPath id="ab4c11f4ef"><path d="M 265.597656 307.597656 C 254.445312 307.597656 245.40625 316.636719 245.40625 327.789062 C 245.40625 338.9375 254.445312 347.980469 265.597656 347.980469 C 276.746094 347.980469 285.789062 338.9375 285.789062 327.789062 C 285.789062 316.636719 276.746094 307.597656 265.597656 307.597656 Z M 265.597656 307.597656 " clip-rule="nonzero"/></clipPath></defs><path fill="#ff5757" d="M 268.871094 56.863281 L 243.929688 77.0625 L 284.761719 77.0625 C 277.679688 68 280.914062 72.109375 268.871094 56.863281 Z M 268.871094 56.863281 " fill-opacity="1" fill-rule="nonzero"/><path fill="#ff5757" d="M 293.992188 77.0625 L 331.164062 77.0625 L 315.269531 51.632812 C 315.015625 51.230469 314.695312 50.886719 314.308594 50.609375 C 313.917969 50.332031 313.492188 50.136719 313.027344 50.027344 C 312.5625 49.921875 312.09375 49.902344 311.621094 49.980469 C 311.148438 50.058594 310.710938 50.21875 310.304688 50.472656 L 285.203125 65.921875 Z M 293.992188 77.0625 " fill-opacity="1" fill-rule="nonzero"/><path fill="#ff5757" d="M 210.773438 77.0625 L 232.382812 77.0625 L 247.226562 65.042969 L 236.003906 56.355469 Z M 210.773438 77.0625 " fill-opacity="1" fill-rule="nonzero"/><g clip-path="url(#b0e2e73206)"><path fill="#ff5757" d="M 343.183594 84.300781 L 191.15625 84.300781 C 190.675781 84.300781 190.214844 84.394531 189.769531 84.578125 C 189.324219 84.761719 188.933594 85.023438 188.59375 85.359375 C 188.253906 85.699219 187.996094 86.09375 187.808594 86.535156 C 187.625 86.980469 187.535156 87.441406 187.535156 87.921875 L 187.535156 218.234375 C 187.535156 219.0625 187.574219 219.890625 187.65625 220.714844 C 187.738281 221.542969 187.859375 222.363281 188.023438 223.175781 C 188.183594 223.988281 188.386719 224.792969 188.625 225.589844 C 188.867188 226.382812 189.144531 227.164062 189.464844 227.929688 C 189.78125 228.695312 190.136719 229.445312 190.527344 230.175781 C 190.917969 230.910156 191.34375 231.621094 191.804688 232.308594 C 192.265625 233 192.761719 233.664062 193.285156 234.308594 C 193.8125 234.949219 194.371094 235.5625 194.957031 236.148438 C 195.542969 236.738281 196.15625 237.292969 196.800781 237.820312 C 197.441406 238.347656 198.105469 238.839844 198.796875 239.300781 C 199.484375 239.761719 200.195312 240.1875 200.929688 240.578125 C 201.660156 240.96875 202.410156 241.324219 203.175781 241.640625 C 203.945312 241.960938 204.722656 242.238281 205.519531 242.480469 C 206.3125 242.722656 207.117188 242.921875 207.929688 243.085938 C 208.742188 243.246094 209.5625 243.367188 210.390625 243.449219 C 211.214844 243.53125 212.042969 243.570312 212.875 243.570312 L 321.464844 243.570312 C 322.296875 243.570312 323.125 243.53125 323.949219 243.449219 C 324.777344 243.367188 325.597656 243.246094 326.410156 243.085938 C 327.222656 242.921875 328.027344 242.722656 328.820312 242.480469 C 329.617188 242.238281 330.394531 241.960938 331.164062 241.640625 C 331.929688 241.324219 332.679688 240.96875 333.410156 240.578125 C 334.144531 240.1875 334.855469 239.761719 335.542969 239.300781 C 336.234375 238.839844 336.898438 238.347656 337.539062 237.820312 C 338.183594 237.292969 338.796875 236.738281 339.382812 236.148438 C 339.96875 235.5625 340.527344 234.949219 341.054688 234.308594 C 341.578125 233.664062 342.074219 233 342.535156 232.308594 C 342.996094 231.621094 343.421875 230.910156 343.8125 230.175781 C 344.203125 229.445312 344.558594 228.695312 344.875 227.929688 C 345.195312 227.164062 345.472656 226.382812 345.714844 225.589844 C 345.953125 224.792969 346.15625 223.988281 346.316406 223.175781 C 346.480469 222.363281 346.601562 221.542969 346.683594 220.714844 C 346.765625 219.890625 346.804688 219.0625 346.804688 218.234375 L 346.804688 87.921875 C 346.804688 87.441406 346.714844 86.980469 346.527344 86.535156 C 346.34375 86.09375 346.085938 85.699219 345.746094 85.359375 C 345.40625 85.023438 345.015625 84.761719 344.570312 84.578125 C 344.125 84.394531 343.664062 84.300781 343.183594 84.300781 Z M 306.988281 124.117188 C 306.988281 125.421875 306.921875 126.722656 306.796875 128.019531 C 306.667969 129.320312 306.476562 130.609375 306.222656 131.886719 C 305.96875 133.164062 305.652344 134.429688 305.273438 135.675781 C 304.894531 136.925781 304.457031 138.152344 303.957031 139.355469 C 303.457031 140.5625 302.902344 141.738281 302.285156 142.886719 C 301.671875 144.039062 301 145.15625 300.277344 146.238281 C 299.550781 147.324219 298.777344 148.371094 297.949219 149.378906 C 297.121094 150.386719 296.246094 151.351562 295.324219 152.273438 C 294.402344 153.195312 293.4375 154.070312 292.429688 154.898438 C 291.421875 155.726562 290.375 156.5 289.292969 157.226562 C 288.207031 157.949219 287.089844 158.621094 285.941406 159.234375 C 284.789062 159.847656 283.613281 160.40625 282.40625 160.90625 C 281.203125 161.402344 279.976562 161.84375 278.726562 162.222656 C 277.480469 162.601562 276.21875 162.917969 274.9375 163.171875 C 273.660156 163.425781 272.371094 163.617188 271.074219 163.746094 C 269.773438 163.871094 268.472656 163.9375 267.167969 163.9375 C 265.867188 163.9375 264.566406 163.871094 263.265625 163.746094 C 261.96875 163.617188 260.679688 163.425781 259.402344 163.171875 C 258.121094 162.917969 256.859375 162.601562 255.613281 162.222656 C 254.363281 161.84375 253.136719 161.402344 251.933594 160.90625 C 250.726562 160.40625 249.550781 159.847656 248.398438 159.234375 C 247.25 158.621094 246.132812 157.949219 245.046875 157.226562 C 243.964844 156.5 242.917969 155.726562 241.910156 154.898438 C 240.902344 154.070312 239.9375 153.195312 239.015625 152.273438 C 238.09375 151.351562 237.21875 150.386719 236.390625 149.378906 C 235.5625 148.371094 234.789062 147.324219 234.0625 146.238281 C 233.339844 145.15625 232.667969 144.039062 232.054688 142.886719 C 231.4375 141.738281 230.882812 140.5625 230.382812 139.355469 C 229.882812 138.152344 229.445312 136.925781 229.066406 135.675781 C 228.6875 134.429688 228.371094 133.164062 228.117188 131.886719 C 227.863281 130.609375 227.671875 129.320312 227.542969 128.019531 C 227.417969 126.722656 227.351562 125.421875 227.351562 124.117188 L 227.351562 109.640625 C 227.351562 109.160156 227.445312 108.699219 227.628906 108.253906 C 227.8125 107.8125 228.074219 107.417969 228.414062 107.078125 C 228.753906 106.742188 229.144531 106.480469 229.585938 106.296875 C 230.03125 106.113281 230.492188 106.019531 230.972656 106.019531 C 231.453125 106.019531 231.914062 106.113281 232.355469 106.296875 C 232.800781 106.480469 233.191406 106.742188 233.53125 107.078125 C 233.871094 107.417969 234.132812 107.8125 234.316406 108.253906 C 234.5 108.699219 234.59375 109.160156 234.59375 109.640625 L 234.59375 124.117188 C 234.59375 125.1875 234.644531 126.25 234.75 127.3125 C 234.851562 128.375 235.011719 129.429688 235.21875 130.472656 C 235.425781 131.519531 235.683594 132.554688 235.996094 133.574219 C 236.304688 134.597656 236.664062 135.601562 237.070312 136.585938 C 237.480469 137.570312 237.9375 138.535156 238.4375 139.476562 C 238.941406 140.417969 239.488281 141.332031 240.082031 142.21875 C 240.675781 143.105469 241.308594 143.960938 241.988281 144.785156 C 242.664062 145.609375 243.378906 146.398438 244.132812 147.15625 C 244.886719 147.910156 245.679688 148.625 246.503906 149.300781 C 247.328125 149.980469 248.183594 150.613281 249.070312 151.207031 C 249.957031 151.800781 250.871094 152.347656 251.8125 152.851562 C 252.753906 153.351562 253.71875 153.808594 254.703125 154.214844 C 255.6875 154.625 256.691406 154.984375 257.714844 155.292969 C 258.734375 155.601562 259.769531 155.863281 260.8125 156.070312 C 261.859375 156.277344 262.914062 156.433594 263.976562 156.539062 C 265.039062 156.644531 266.101562 156.695312 267.167969 156.695312 C 268.238281 156.695312 269.300781 156.644531 270.363281 156.539062 C 271.425781 156.433594 272.480469 156.277344 273.527344 156.070312 C 274.570312 155.863281 275.605469 155.601562 276.625 155.292969 C 277.648438 154.984375 278.652344 154.625 279.636719 154.214844 C 280.621094 153.808594 281.585938 153.351562 282.527344 152.851562 C 283.46875 152.347656 284.382812 151.800781 285.269531 151.207031 C 286.15625 150.613281 287.011719 149.980469 287.835938 149.300781 C 288.660156 148.625 289.453125 147.910156 290.207031 147.15625 C 290.960938 146.398438 291.675781 145.609375 292.351562 144.785156 C 293.03125 143.960938 293.664062 143.105469 294.257812 142.21875 C 294.851562 141.332031 295.398438 140.417969 295.902344 139.476562 C 296.402344 138.535156 296.859375 137.570312 297.269531 136.585938 C 297.675781 135.601562 298.035156 134.597656 298.34375 133.574219 C 298.65625 132.554688 298.914062 131.519531 299.121094 130.472656 C 299.328125 129.429688 299.488281 128.375 299.589844 127.3125 C 299.695312 126.25 299.746094 125.1875 299.746094 124.117188 L 299.746094 109.640625 C 299.746094 109.160156 299.839844 108.699219 300.023438 108.253906 C 300.207031 107.8125 300.46875 107.417969 300.808594 107.078125 C 301.148438 106.742188 301.539062 106.480469 301.980469 106.296875 C 302.425781 106.113281 302.886719 106.019531 303.367188 106.019531 C 303.847656 106.019531 304.308594 106.113281 304.753906 106.296875 C 305.195312 106.480469 305.585938 106.742188 305.925781 107.078125 C 306.265625 107.417969 306.527344 107.8125 306.710938 108.253906 C 306.894531 108.699219 306.988281 109.160156 306.988281 109.640625 Z M 306.988281 124.117188 " fill-opacity="1" fill-rule="nonzero"/></g><g clip-path="url(#391e07731a)"><path fill="#ff5757" d="M 205.707031 71.847656 L 233.652344 48.9375 C 233.964844 48.671875 234.316406 48.46875 234.703125 48.324219 C 235.089844 48.179688 235.488281 48.105469 235.898438 48.097656 C 236.3125 48.09375 236.714844 48.15625 237.105469 48.285156 C 237.492188 48.417969 237.851562 48.609375 238.175781 48.863281 L 253.015625 60.339844 L 267.167969 48.898438 C 267.953125 48.261719 268.847656 48.007812 269.847656 48.140625 C 270.84375 48.246094 271.652344 48.691406 272.273438 49.480469 L 280.707031 60.195312 L 299.058594 48.898438 L 292.074219 21.859375 C 291.957031 21.394531 291.753906 20.964844 291.464844 20.582031 C 291.175781 20.195312 290.824219 19.878906 290.410156 19.632812 C 289.996094 19.390625 289.550781 19.234375 289.070312 19.167969 C 288.59375 19.101562 288.125 19.132812 287.65625 19.253906 L 201.617188 41.480469 C 201.152344 41.601562 200.726562 41.804688 200.34375 42.09375 C 199.957031 42.382812 199.644531 42.734375 199.402344 43.148438 C 199.15625 43.5625 199 44.007812 198.933594 44.484375 C 198.863281 44.960938 198.890625 45.429688 199.007812 45.894531 Z M 205.707031 71.847656 " fill-opacity="1" fill-rule="nonzero"/></g><g clip-path="url(#763d7a886c)"><path fill="#0866ff" d="M 375 175.195312 L 349.070312 282.886719 C 349.070312 283.398438 349.019531 283.90625 348.917969 284.40625 C 348.816406 284.910156 348.667969 285.398438 348.46875 285.871094 C 348.273438 286.34375 348.03125 286.792969 347.746094 287.21875 C 347.464844 287.644531 347.140625 288.039062 346.777344 288.402344 C 346.414062 288.761719 346.019531 289.085938 345.59375 289.371094 C 345.167969 289.65625 344.71875 289.898438 344.246094 290.09375 C 343.773438 290.289062 343.285156 290.441406 342.785156 290.539062 C 342.28125 290.640625 341.777344 290.695312 341.261719 290.695312 L 166.558594 291.960938 C 166.046875 291.960938 165.539062 291.910156 165.035156 291.808594 C 164.535156 291.707031 164.046875 291.558594 163.574219 291.359375 C 163.101562 291.164062 162.652344 290.921875 162.226562 290.636719 C 161.800781 290.351562 161.40625 290.027344 161.042969 289.667969 C 160.679688 289.304688 160.359375 288.910156 160.074219 288.484375 C 159.789062 288.058594 159.546875 287.609375 159.351562 287.136719 C 159.152344 286.664062 159.003906 286.175781 158.902344 285.675781 C 158.800781 285.171875 158.75 284.664062 158.75 284.152344 L 158.75 175.183594 C 158.746094 174.96875 158.753906 174.753906 158.773438 174.542969 L 156.414062 153.457031 L 130.589844 153.457031 C 129.878906 153.429688 129.183594 153.335938 128.492188 153.171875 C 127.804688 153.011719 127.136719 152.785156 126.488281 152.492188 C 125.84375 152.203125 125.230469 151.855469 124.652344 151.445312 C 124.074219 151.039062 123.539062 150.578125 123.046875 150.066406 C 122.558594 149.558594 122.121094 149.003906 121.734375 148.410156 C 121.351562 147.816406 121.027344 147.1875 120.761719 146.53125 C 120.496094 145.875 120.296875 145.199219 120.164062 144.503906 C 120.027344 143.808594 119.960938 143.105469 119.960938 142.398438 C 119.960938 141.691406 120.027344 140.988281 120.164062 140.292969 C 120.296875 139.597656 120.496094 138.921875 120.761719 138.265625 C 121.027344 137.609375 121.351562 136.980469 121.734375 136.386719 C 122.121094 135.792969 122.558594 135.238281 123.046875 134.730469 C 123.539062 134.21875 124.074219 133.757812 124.652344 133.351562 C 125.230469 132.941406 125.84375 132.59375 126.488281 132.304688 C 127.136719 132.011719 127.804688 131.785156 128.492188 131.625 C 129.183594 131.460938 129.878906 131.367188 130.589844 131.339844 L 176.175781 131.339844 C 176.179688 131.378906 176.179688 131.417969 176.175781 131.457031 L 178.640625 153.472656 L 180.203125 167.382812 L 367.191406 167.382812 C 367.703125 167.382812 368.210938 167.433594 368.714844 167.535156 C 369.214844 167.636719 369.703125 167.785156 370.175781 167.984375 C 370.648438 168.179688 371.097656 168.421875 371.523438 168.707031 C 371.949219 168.992188 372.34375 169.316406 372.707031 169.679688 C 373.070312 170.039062 373.390625 170.433594 373.675781 170.859375 C 373.960938 171.285156 374.203125 171.738281 374.398438 172.210938 C 374.597656 172.683594 374.746094 173.171875 374.847656 173.671875 C 374.949219 174.175781 375 174.683594 375 175.195312 Z M 375 175.195312 " fill-opacity="1" fill-rule="nonzero"/></g><g clip-path="url(#126e7bbe4e)"><path fill="#0866ff" d="M 213.109375 327.375 C 213.109375 328.308594 213.066406 329.238281 212.972656 330.164062 C 212.882812 331.089844 212.746094 332.011719 212.5625 332.925781 C 212.382812 333.839844 212.15625 334.742188 211.886719 335.636719 C 211.613281 336.527344 211.300781 337.402344 210.945312 338.265625 C 210.585938 339.125 210.191406 339.96875 209.75 340.789062 C 209.3125 341.609375 208.832031 342.410156 208.316406 343.183594 C 207.796875 343.957031 207.242188 344.707031 206.652344 345.425781 C 206.058594 346.148438 205.433594 346.835938 204.777344 347.496094 C 204.117188 348.15625 203.425781 348.78125 202.707031 349.371094 C 201.984375 349.960938 201.238281 350.515625 200.464844 351.035156 C 199.6875 351.550781 198.890625 352.03125 198.070312 352.46875 C 197.246094 352.910156 196.40625 353.308594 195.542969 353.664062 C 194.683594 354.019531 193.804688 354.335938 192.914062 354.605469 C 192.023438 354.875 191.121094 355.101562 190.207031 355.285156 C 189.292969 355.464844 188.371094 355.601562 187.445312 355.695312 C 186.515625 355.785156 185.585938 355.832031 184.65625 355.832031 C 183.722656 355.832031 182.792969 355.785156 181.867188 355.695312 C 180.9375 355.601562 180.015625 355.464844 179.101562 355.285156 C 178.1875 355.101562 177.285156 354.875 176.394531 354.605469 C 175.503906 354.335938 174.625 354.019531 173.765625 353.664062 C 172.902344 353.308594 172.0625 352.910156 171.242188 352.46875 C 170.417969 352.03125 169.621094 351.550781 168.84375 351.035156 C 168.070312 350.515625 167.324219 349.960938 166.601562 349.371094 C 165.882812 348.78125 165.191406 348.15625 164.53125 347.496094 C 163.875 346.835938 163.25 346.148438 162.65625 345.425781 C 162.066406 344.707031 161.511719 343.957031 160.996094 343.183594 C 160.476562 342.410156 159.996094 341.609375 159.558594 340.789062 C 159.121094 339.96875 158.722656 339.125 158.363281 338.265625 C 158.007812 337.402344 157.695312 336.527344 157.421875 335.636719 C 157.152344 334.742188 156.925781 333.839844 156.746094 332.925781 C 156.5625 332.011719 156.425781 331.089844 156.335938 330.164062 C 156.246094 329.238281 156.199219 328.308594 156.199219 327.375 C 156.199219 326.441406 156.246094 325.511719 156.335938 324.585938 C 156.425781 323.65625 156.5625 322.738281 156.746094 321.824219 C 156.925781 320.910156 157.152344 320.007812 157.421875 319.113281 C 157.695312 318.222656 158.007812 317.347656 158.363281 316.484375 C 158.722656 315.625 159.121094 314.78125 159.558594 313.960938 C 159.996094 313.140625 160.476562 312.339844 160.996094 311.566406 C 161.511719 310.789062 162.066406 310.042969 162.65625 309.324219 C 163.25 308.601562 163.875 307.914062 164.53125 307.253906 C 165.191406 306.59375 165.882812 305.96875 166.601562 305.378906 C 167.324219 304.785156 168.070312 304.230469 168.84375 303.714844 C 169.621094 303.195312 170.417969 302.71875 171.242188 302.277344 C 172.0625 301.839844 172.902344 301.441406 173.765625 301.085938 C 174.625 300.726562 175.503906 300.414062 176.394531 300.144531 C 177.285156 299.875 178.1875 299.648438 179.101562 299.464844 C 180.015625 299.285156 180.9375 299.148438 181.867188 299.054688 C 182.792969 298.964844 183.722656 298.917969 184.65625 298.917969 C 185.585938 298.917969 186.515625 298.964844 187.445312 299.054688 C 188.371094 299.148438 189.292969 299.285156 190.207031 299.464844 C 191.121094 299.648438 192.023438 299.875 192.914062 300.144531 C 193.804688 300.414062 194.683594 300.726562 195.542969 301.085938 C 196.40625 301.441406 197.246094 301.839844 198.070312 302.277344 C 198.890625 302.71875 199.6875 303.195312 200.464844 303.714844 C 201.238281 304.230469 201.984375 304.785156 202.707031 305.378906 C 203.425781 305.96875 204.117188 306.59375 204.777344 307.253906 C 205.433594 307.914062 206.058594 308.601562 206.652344 309.324219 C 207.242188 310.042969 207.796875 310.789062 208.316406 311.566406 C 208.832031 312.339844 209.3125 313.140625 209.75 313.960938 C 210.191406 314.78125 210.585938 315.625 210.945312 316.484375 C 211.300781 317.347656 211.613281 318.222656 211.886719 319.113281 C 212.15625 320.007812 212.382812 320.910156 212.5625 321.824219 C 212.746094 322.738281 212.882812 323.65625 212.972656 324.585938 C 213.066406 325.511719 213.109375 326.441406 213.109375 327.375 Z M 213.109375 327.375 " fill-opacity="1" fill-rule="nonzero"/></g><g clip-path="url(#dbe76cba89)"><path fill="#0866ff" d="M 293.421875 327.375 C 293.421875 328.308594 293.375 329.238281 293.285156 330.164062 C 293.195312 331.089844 293.058594 332.011719 292.875 332.925781 C 292.695312 333.839844 292.46875 334.742188 292.195312 335.636719 C 291.925781 336.527344 291.613281 337.402344 291.257812 338.265625 C 290.898438 339.125 290.5 339.96875 290.0625 340.789062 C 289.621094 341.609375 289.144531 342.410156 288.625 343.183594 C 288.109375 343.957031 287.554688 344.707031 286.964844 345.425781 C 286.371094 346.148438 285.746094 346.835938 285.085938 347.496094 C 284.429688 348.15625 283.738281 348.78125 283.019531 349.371094 C 282.296875 349.960938 281.550781 350.515625 280.773438 351.035156 C 280 351.550781 279.203125 352.03125 278.378906 352.46875 C 277.558594 352.910156 276.71875 353.308594 275.855469 353.664062 C 274.996094 354.019531 274.117188 354.335938 273.226562 354.605469 C 272.335938 354.875 271.433594 355.101562 270.519531 355.285156 C 269.605469 355.464844 268.683594 355.601562 267.753906 355.695312 C 266.828125 355.785156 265.898438 355.832031 264.964844 355.832031 C 264.035156 355.832031 263.105469 355.785156 262.175781 355.695312 C 261.25 355.601562 260.328125 355.464844 259.414062 355.285156 C 258.5 355.101562 257.597656 354.875 256.707031 354.605469 C 255.8125 354.335938 254.9375 354.019531 254.078125 353.664062 C 253.214844 353.308594 252.375 352.910156 251.550781 352.46875 C 250.730469 352.03125 249.933594 351.550781 249.15625 351.035156 C 248.382812 350.515625 247.632812 349.960938 246.914062 349.371094 C 246.195312 348.78125 245.503906 348.15625 244.84375 347.496094 C 244.1875 346.835938 243.5625 346.148438 242.96875 345.425781 C 242.378906 344.707031 241.824219 343.957031 241.304688 343.183594 C 240.789062 342.410156 240.308594 341.609375 239.871094 340.789062 C 239.429688 339.96875 239.03125 339.125 238.675781 338.265625 C 238.320312 337.402344 238.007812 336.527344 237.734375 335.636719 C 237.464844 334.742188 237.238281 333.839844 237.058594 332.925781 C 236.875 332.011719 236.738281 331.089844 236.648438 330.164062 C 236.554688 329.238281 236.511719 328.308594 236.511719 327.375 C 236.511719 326.441406 236.554688 325.511719 236.648438 324.585938 C 236.738281 323.65625 236.875 322.738281 237.058594 321.824219 C 237.238281 320.910156 237.464844 320.007812 237.734375 319.113281 C 238.007812 318.222656 238.320312 317.347656 238.675781 316.484375 C 239.03125 315.625 239.429688 314.78125 239.871094 313.960938 C 240.308594 313.140625 240.789062 312.339844 241.304688 311.566406 C 241.824219 310.789062 242.378906 310.042969 242.96875 309.324219 C 243.5625 308.601562 244.1875 307.914062 244.84375 307.253906 C 245.503906 306.59375 246.195312 305.96875 246.914062 305.378906 C 247.632812 304.785156 248.382812 304.230469 249.15625 303.714844 C 249.933594 303.195312 250.730469 302.71875 251.550781 302.277344 C 252.375 301.839844 253.214844 301.441406 254.078125 301.085938 C 254.9375 300.726562 255.8125 300.414062 256.707031 300.144531 C 257.597656 299.875 258.5 299.648438 259.414062 299.464844 C 260.328125 299.285156 261.25 299.148438 262.175781 299.054688 C 263.105469 298.964844 264.035156 298.917969 264.964844 298.917969 C 265.898438 298.917969 266.828125 298.964844 267.753906 299.054688 C 268.683594 299.148438 269.605469 299.285156 270.519531 299.464844 C 271.433594 299.648438 272.335938 299.875 273.226562 300.144531 C 274.117188 300.414062 274.996094 300.726562 275.855469 301.085938 C 276.714844 301.441406 277.558594 301.839844 278.378906 302.277344 C 279.203125 302.71875 280 303.195312 280.773438 303.714844 C 281.550781 304.230469 282.296875 304.785156 283.019531 305.378906 C 283.738281 305.96875 284.429688 306.59375 285.085938 307.253906 C 285.746094 307.914062 286.371094 308.601562 286.964844 309.324219 C 287.554688 310.042969 288.109375 310.789062 288.625 311.566406 C 289.144531 312.339844 289.621094 313.140625 290.0625 313.960938 C 290.5 314.78125 290.898438 315.625 291.257812 316.484375 C 291.613281 317.347656 291.925781 318.222656 292.195312 319.113281 C 292.46875 320.007812 292.695312 320.910156 292.875 321.824219 C 293.058594 322.738281 293.195312 323.65625 293.285156 324.585938 C 293.375 325.511719 293.421875 326.441406 293.421875 327.375 Z M 293.421875 327.375 " fill-opacity="1" fill-rule="nonzero"/></g><path fill="#0866ff" d="M 74.621094 176.867188 L 139.757812 176.867188 C 140.253906 176.867188 140.746094 176.914062 141.234375 177.011719 C 141.726562 177.109375 142.199219 177.253906 142.660156 177.445312 C 143.121094 177.636719 143.558594 177.871094 143.972656 178.144531 C 144.386719 178.421875 144.769531 178.738281 145.121094 179.089844 C 145.472656 179.441406 145.789062 179.824219 146.066406 180.238281 C 146.34375 180.652344 146.574219 181.089844 146.765625 181.550781 C 146.957031 182.011719 147.101562 182.488281 147.199219 182.976562 C 147.296875 183.464844 147.34375 183.957031 147.34375 184.457031 L 147.34375 186.351562 C 147.34375 186.851562 147.296875 187.34375 147.199219 187.832031 C 147.101562 188.320312 146.957031 188.796875 146.765625 189.257812 C 146.574219 189.71875 146.34375 190.152344 146.066406 190.570312 C 145.789062 190.984375 145.472656 191.367188 145.121094 191.71875 C 144.769531 192.070312 144.386719 192.386719 143.972656 192.660156 C 143.558594 192.9375 143.121094 193.171875 142.660156 193.363281 C 142.199219 193.554688 141.726562 193.699219 141.234375 193.796875 C 140.746094 193.890625 140.253906 193.941406 139.757812 193.941406 L 74.621094 193.941406 C 74.121094 193.941406 73.628906 193.890625 73.140625 193.796875 C 72.652344 193.699219 72.175781 193.554688 71.714844 193.363281 C 71.257812 193.171875 70.820312 192.9375 70.40625 192.660156 C 69.992188 192.386719 69.605469 192.070312 69.253906 191.71875 C 68.902344 191.367188 68.589844 190.984375 68.3125 190.570312 C 68.035156 190.152344 67.800781 189.71875 67.609375 189.257812 C 67.417969 188.796875 67.273438 188.320312 67.179688 187.832031 C 67.082031 187.34375 67.03125 186.851562 67.03125 186.351562 L 67.03125 184.457031 C 67.03125 183.957031 67.082031 183.464844 67.179688 182.976562 C 67.273438 182.488281 67.417969 182.011719 67.609375 181.550781 C 67.800781 181.089844 68.035156 180.652344 68.3125 180.238281 C 68.589844 179.824219 68.902344 179.441406 69.253906 179.089844 C 69.605469 178.738281 69.992188 178.421875 70.40625 178.144531 C 70.820312 177.871094 71.257812 177.636719 71.714844 177.445312 C 72.175781 177.253906 72.652344 177.109375 73.140625 177.011719 C 73.628906 176.914062 74.121094 176.867188 74.621094 176.867188 Z M 74.621094 176.867188 " fill-opacity="1" fill-rule="nonzero"/><path fill="#0866ff" d="M 74.621094 283.105469 L 139.757812 283.105469 C 140.253906 283.105469 140.746094 283.15625 141.234375 283.253906 C 141.726562 283.351562 142.199219 283.492188 142.660156 283.683594 C 143.121094 283.875 143.558594 284.109375 143.972656 284.386719 C 144.386719 284.664062 144.769531 284.976562 145.121094 285.328125 C 145.472656 285.683594 145.789062 286.066406 146.066406 286.480469 C 146.34375 286.894531 146.574219 287.332031 146.765625 287.792969 C 146.957031 288.25 147.101562 288.726562 147.199219 289.214844 C 147.296875 289.703125 147.34375 290.195312 147.34375 290.695312 L 147.34375 292.59375 C 147.34375 293.089844 147.296875 293.585938 147.199219 294.074219 C 147.101562 294.5625 146.957031 295.035156 146.765625 295.496094 C 146.574219 295.957031 146.34375 296.394531 146.066406 296.808594 C 145.789062 297.222656 145.472656 297.605469 145.121094 297.957031 C 144.769531 298.308594 144.386719 298.625 143.972656 298.902344 C 143.558594 299.179688 143.121094 299.414062 142.660156 299.601562 C 142.199219 299.792969 141.726562 299.9375 141.234375 300.035156 C 140.746094 300.132812 140.253906 300.179688 139.757812 300.179688 L 74.621094 300.179688 C 74.121094 300.179688 73.628906 300.132812 73.140625 300.035156 C 72.652344 299.9375 72.175781 299.792969 71.714844 299.601562 C 71.257812 299.414062 70.820312 299.179688 70.40625 298.902344 C 69.992188 298.625 69.605469 298.308594 69.253906 297.957031 C 68.902344 297.605469 68.589844 297.222656 68.3125 296.808594 C 68.035156 296.394531 67.800781 295.957031 67.609375 295.496094 C 67.417969 295.035156 67.273438 294.5625 67.179688 294.074219 C 67.082031 293.585938 67.03125 293.089844 67.03125 292.59375 L 67.03125 290.695312 C 67.03125 290.195312 67.082031 289.703125 67.179688 289.214844 C 67.273438 288.726562 67.417969 288.25 67.609375 287.792969 C 67.800781 287.332031 68.035156 286.894531 68.3125 286.480469 C 68.589844 286.066406 68.902344 285.683594 69.253906 285.328125 C 69.605469 284.976562 69.992188 284.664062 70.40625 284.386719 C 70.820312 284.109375 71.257812 283.875 71.714844 283.683594 C 72.175781 283.492188 72.652344 283.351562 73.140625 283.253906 C 73.628906 283.15625 74.121094 283.105469 74.621094 283.105469 Z M 74.621094 283.105469 " fill-opacity="1" fill-rule="nonzero"/><path fill="#0866ff" d="M 8.535156 228.722656 L 138.808594 228.722656 C 139.367188 228.722656 139.921875 228.777344 140.472656 228.886719 C 141.023438 228.996094 141.554688 229.160156 142.074219 229.375 C 142.59375 229.585938 143.085938 229.851562 143.550781 230.160156 C 144.015625 230.472656 144.449219 230.828125 144.84375 231.222656 C 145.238281 231.621094 145.59375 232.050781 145.90625 232.515625 C 146.21875 232.984375 146.480469 233.476562 146.695312 233.992188 C 146.910156 234.511719 147.070312 235.042969 147.179688 235.59375 C 147.289062 236.144531 147.34375 236.699219 147.34375 237.261719 C 147.34375 237.820312 147.289062 238.375 147.179688 238.925781 C 147.070312 239.476562 146.910156 240.007812 146.695312 240.527344 C 146.480469 241.042969 146.21875 241.535156 145.90625 242.003906 C 145.59375 242.46875 145.238281 242.898438 144.84375 243.296875 C 144.449219 243.691406 144.015625 244.046875 143.550781 244.359375 C 143.085938 244.667969 142.59375 244.933594 142.074219 245.148438 C 141.554688 245.363281 141.023438 245.523438 140.472656 245.632812 C 139.921875 245.742188 139.367188 245.796875 138.808594 245.796875 L 8.535156 245.796875 C 7.976562 245.796875 7.421875 245.742188 6.871094 245.632812 C 6.320312 245.523438 5.789062 245.363281 5.269531 245.148438 C 4.753906 244.933594 4.261719 244.667969 3.792969 244.359375 C 3.328125 244.046875 2.898438 243.691406 2.5 243.296875 C 2.105469 242.898438 1.75 242.46875 1.4375 242.003906 C 1.128906 241.535156 0.863281 241.042969 0.648438 240.527344 C 0.433594 240.007812 0.273438 239.476562 0.164062 238.925781 C 0.0546875 238.375 0 237.820312 0 237.261719 C 0 236.699219 0.0546875 236.144531 0.164062 235.59375 C 0.273438 235.042969 0.433594 234.511719 0.648438 233.992188 C 0.863281 233.476562 1.128906 232.984375 1.4375 232.515625 C 1.75 232.050781 2.105469 231.621094 2.5 231.222656 C 2.898438 230.828125 3.328125 230.472656 3.792969 230.160156 C 4.261719 229.851562 4.753906 229.585938 5.269531 229.375 C 5.789062 229.160156 6.320312 228.996094 6.871094 228.886719 C 7.421875 228.777344 7.976562 228.722656 8.535156 228.722656 Z M 8.535156 228.722656 " fill-opacity="1" fill-rule="nonzero"/><path fill="#ffffff" d="M 253.445312 237.785156 L 250.765625 237.785156 C 250 237.785156 249.296875 237.46875 248.789062 236.960938 L 248.710938 236.882812 C 248.25 236.386719 247.964844 235.71875 247.964844 234.984375 C 247.964844 233.972656 247.144531 233.144531 246.128906 233.144531 C 245.113281 233.144531 244.289062 233.96875 244.289062 234.984375 C 244.289062 236.699219 244.972656 238.269531 246.078125 239.4375 L 246.195312 239.5625 C 247.253906 240.621094 248.6875 241.316406 250.269531 241.4375 L 250.269531 243.515625 C 250.269531 244.527344 251.089844 245.351562 252.109375 245.351562 C 253.125 245.351562 253.945312 244.53125 253.945312 243.515625 L 253.945312 241.4375 C 255.527344 241.316406 256.960938 240.621094 258.019531 239.5625 L 258.019531 239.554688 C 259.195312 238.382812 259.921875 236.761719 259.921875 234.984375 C 259.921875 233.207031 259.191406 231.585938 258.019531 230.414062 L 258.015625 230.40625 C 256.839844 229.234375 255.222656 228.507812 253.445312 228.507812 L 250.765625 228.507812 C 250 228.507812 249.296875 228.191406 248.789062 227.679688 L 248.710938 227.605469 C 248.25 227.105469 247.964844 226.4375 247.964844 225.703125 C 247.964844 224.933594 248.277344 224.230469 248.785156 223.726562 L 248.789062 223.726562 C 249.296875 223.21875 250 222.902344 250.765625 222.902344 L 253.445312 222.902344 C 254.21875 222.902344 254.917969 223.21875 255.425781 223.722656 C 255.929688 224.230469 256.246094 224.933594 256.246094 225.703125 C 256.246094 226.71875 257.066406 227.542969 258.082031 227.542969 C 259.101562 227.542969 259.921875 226.722656 259.921875 225.703125 C 259.921875 223.925781 259.191406 222.308594 258.019531 221.132812 L 258.015625 221.128906 C 256.953125 220.066406 255.527344 219.375 253.945312 219.25 L 253.945312 217.171875 C 253.945312 216.15625 253.125 215.335938 252.109375 215.335938 C 251.089844 215.335938 250.269531 216.15625 250.269531 217.171875 L 250.269531 219.25 C 248.6875 219.375 247.253906 220.066406 246.199219 221.132812 C 245.019531 222.308594 244.289062 223.925781 244.289062 225.699219 C 244.289062 227.417969 244.972656 228.988281 246.078125 230.152344 L 246.195312 230.277344 C 247.367188 231.449219 248.988281 232.179688 250.769531 232.179688 L 253.449219 232.179688 C 254.21875 232.179688 254.921875 232.496094 255.429688 233 C 255.933594 233.507812 256.25 234.210938 256.25 234.980469 C 256.25 235.753906 255.933594 236.453125 255.425781 236.957031 C 254.914062 237.46875 254.214844 237.785156 253.445312 237.785156 Z M 253.445312 237.785156 " fill-opacity="1" fill-rule="nonzero"/><path fill="#ffffff" d="M 252.109375 253.648438 C 258.542969 253.648438 264.371094 251.035156 268.585938 246.820312 C 272.804688 242.605469 275.410156 236.78125 275.410156 230.34375 C 275.410156 223.910156 272.800781 218.082031 268.585938 213.867188 C 264.371094 209.648438 258.542969 207.042969 252.109375 207.042969 C 245.671875 207.042969 239.84375 209.652344 235.628906 213.867188 C 231.410156 218.085938 228.804688 223.910156 228.804688 230.34375 C 228.804688 236.78125 231.414062 242.605469 235.628906 246.820312 C 239.84375 251.039062 245.671875 253.648438 252.109375 253.648438 Z M 238.574219 216.8125 C 242.039062 213.347656 246.824219 211.207031 252.109375 211.207031 C 257.390625 211.207031 262.175781 213.351562 265.640625 216.8125 C 269.105469 220.273438 271.246094 225.0625 271.246094 230.34375 C 271.246094 235.628906 269.101562 240.414062 265.640625 243.878906 C 262.175781 247.339844 257.390625 249.480469 252.109375 249.480469 C 246.824219 249.480469 242.039062 247.335938 238.574219 243.878906 C 235.113281 240.414062 232.972656 235.628906 232.972656 230.34375 C 232.96875 225.0625 235.113281 220.273438 238.574219 216.8125 Z M 238.574219 216.8125 " fill-opacity="1" fill-rule="nonzero"/><g clip-path="url(#6fdc57946b)"><path fill="#ffffff" d="M 326.707031 247.554688 L 316.695312 199.101562 L 316.695312 199.089844 C 316.695312 198.796875 316.632812 198.511719 316.519531 198.257812 L 314.054688 186.339844 C 313.828125 185.21875 312.730469 184.492188 311.609375 184.722656 L 252.144531 197.011719 L 189.601562 197.011719 C 188.453125 197.011719 187.519531 197.941406 187.519531 199.089844 L 187.519531 261.597656 C 187.519531 262.746094 188.453125 263.679688 189.601562 263.679688 L 198.148438 263.679688 L 200.214844 273.679688 C 200.445312 274.804688 201.539062 275.527344 202.660156 275.296875 L 258.886719 263.679688 L 314.609375 263.679688 C 315.757812 263.679688 316.691406 262.746094 316.691406 261.597656 L 316.691406 251.738281 L 325.082031 250.003906 C 326.207031 249.773438 326.933594 248.675781 326.707031 247.554688 Z M 310.414062 189.210938 L 312.023438 197.011719 L 272.65625 197.011719 Z M 203.863281 270.8125 L 202.390625 263.679688 L 238.378906 263.679688 Z M 312.527344 259.515625 L 191.6875 259.515625 L 191.6875 201.175781 L 312.527344 201.175781 Z M 316.695312 247.496094 L 316.695312 219.613281 L 322.21875 246.355469 Z M 316.695312 247.496094 " fill-opacity="1" fill-rule="nonzero"/></g><path fill="#ffffff" d="M 200.308594 221.195312 C 201.457031 221.195312 202.390625 220.265625 202.390625 219.117188 L 202.390625 211.3125 L 210.191406 211.3125 C 211.34375 211.3125 212.273438 210.378906 212.273438 209.230469 C 212.273438 208.082031 211.34375 207.148438 210.191406 207.148438 L 200.308594 207.148438 C 199.160156 207.148438 198.226562 208.082031 198.226562 209.230469 L 198.226562 219.117188 C 198.222656 220.265625 199.15625 221.195312 200.308594 221.195312 Z M 200.308594 221.195312 " fill-opacity="1" fill-rule="nonzero"/><path fill="#ffffff" d="M 210.191406 249.375 L 202.390625 249.375 L 202.390625 241.574219 C 202.390625 240.425781 201.457031 239.492188 200.308594 239.492188 C 199.160156 239.492188 198.226562 240.425781 198.226562 241.574219 L 198.226562 251.457031 C 198.226562 252.605469 199.160156 253.539062 200.308594 253.539062 L 210.191406 253.539062 C 211.34375 253.539062 212.273438 252.605469 212.273438 251.457031 C 212.273438 250.308594 211.34375 249.375 210.191406 249.375 Z M 210.191406 249.375 " fill-opacity="1" fill-rule="nonzero"/><path fill="#ffffff" d="M 294.019531 211.3125 L 301.820312 211.3125 L 301.820312 219.117188 C 301.820312 220.265625 302.753906 221.195312 303.902344 221.195312 C 305.050781 221.195312 305.984375 220.265625 305.984375 219.117188 L 305.984375 209.230469 C 305.984375 208.082031 305.050781 207.148438 303.902344 207.148438 L 294.019531 207.148438 C 292.871094 207.148438 291.9375 208.082031 291.9375 209.230469 C 291.9375 210.378906 292.871094 211.3125 294.019531 211.3125 Z M 294.019531 211.3125 " fill-opacity="1" fill-rule="nonzero"/><path fill="#ffffff" d="M 294.019531 253.542969 L 303.902344 253.542969 C 305.050781 253.542969 305.984375 252.609375 305.984375 251.460938 L 305.984375 241.578125 C 305.984375 240.429688 305.050781 239.496094 303.902344 239.496094 C 302.753906 239.496094 301.820312 240.429688 301.820312 241.578125 L 301.820312 249.378906 L 294.019531 249.378906 C 292.871094 249.378906 291.9375 250.3125 291.9375 251.460938 C 291.9375 252.609375 292.871094 253.542969 294.019531 253.542969 Z M 294.019531 253.542969 " fill-opacity="1" fill-rule="nonzero"/><g clip-path="url(#a35f61a2b8)"><g clip-path="url(#8464ad2c8d)"><path stroke-linecap="butt" transform="matrix(0.75, 0, 0, 0.75, 164.157767, 307.596016)" fill="none" stroke-linejoin="miter" d="M 26.919855 0.00218727 C 12.05527 0.00218727 -0.00202203 12.054271 -0.00202203 26.924064 C -0.00202203 41.788648 12.05527 53.845941 26.919855 53.845941 C 41.789647 53.845941 53.841732 41.788648 53.841732 26.924064 C 53.841732 12.054271 41.789647 0.00218727 26.919855 0.00218727 Z M 26.919855 0.00218727 " stroke="#ffffff" stroke-width="10" stroke-opacity="1" stroke-miterlimit="4"/></g></g><g clip-path="url(#6d52ea4b40)"><g clip-path="url(#ab4c11f4ef)"><path stroke-linecap="butt" transform="matrix(0.75, 0, 0, 0.75, 245.404704, 307.596016)" fill="none" stroke-linejoin="miter" d="M 26.923938 0.00218727 C 12.054145 0.00218727 0.00206082 12.054271 0.00206082 26.924064 C 0.00206082 41.788648 12.054145 53.845941 26.923938 53.845941 C 41.788522 53.845941 53.845814 41.788648 53.845814 26.924064 C 53.845814 12.054271 41.788522 0.00218727 26.923938 0.00218727 Z M 26.923938 0.00218727 " stroke="#ffffff" stroke-width="10" stroke-opacity="1" stroke-miterlimit="4"/></g></g></svg>