<svg xmlns="http://www.w3.org/2000/svg" xmlns:xlink="http://www.w3.org/1999/xlink" width="500" zoomAndPan="magnify" viewBox="0 0 375 374.999991" height="500" preserveAspectRatio="xMidYMid meet" version="1.0"><defs><clipPath id="30b52a401b"><path d="M 132 313 L 188 313 L 188 368.8125 L 132 368.8125 Z M 132 313 " clip-rule="nonzero"/></clipPath><clipPath id="da53236a2d"><path d="M 258 313 L 314 313 L 314 368.8125 L 258 368.8125 Z M 258 313 " clip-rule="nonzero"/></clipPath></defs><path fill="#d9d9d9" d="M 149.152344 18.527344 L 178.375 127.582031 C 179.550781 131.972656 176.941406 136.492188 172.550781 137.671875 L 135.425781 147.617188 C 131.035156 148.792969 126.515625 146.183594 125.339844 141.792969 L 96.117188 32.738281 C 94.941406 28.347656 97.550781 23.828125 101.941406 22.652344 L 139.066406 12.703125 C 143.457031 11.527344 147.976562 14.136719 149.152344 18.527344 Z M 149.152344 18.527344 " fill-opacity="1" fill-rule="evenodd"/><path fill="#d9d9d9" d="M 200.871094 55.691406 L 200.871094 168.59375 C 200.871094 173.140625 197.179688 176.832031 192.632812 176.832031 L 154.199219 176.832031 C 149.652344 176.832031 145.964844 173.140625 145.964844 168.59375 L 145.964844 55.691406 C 145.964844 51.148438 149.652344 47.457031 154.199219 47.457031 L 192.632812 47.457031 C 197.179688 47.457031 200.871094 51.148438 200.871094 55.691406 Z M 200.871094 55.691406 " fill-opacity="1" fill-rule="evenodd"/><path fill="#d9d9d9" d="M 362.101562 39.324219 L 305.648438 137.097656 C 303.375 141.035156 298.335938 142.386719 294.398438 140.113281 L 261.113281 120.894531 C 257.175781 118.625 255.824219 113.582031 258.097656 109.644531 L 314.546875 11.871094 C 316.820312 7.933594 321.863281 6.582031 325.800781 8.855469 L 359.085938 28.070312 C 363.023438 30.34375 364.371094 35.386719 362.101562 39.324219 Z M 362.101562 39.324219 " fill-opacity="1" fill-rule="evenodd"/><path fill="#d9d9d9" d="M 281.433594 39.335938 L 281.433594 152.238281 C 281.433594 156.785156 277.742188 160.476562 273.195312 160.476562 L 234.761719 160.476562 C 230.214844 160.476562 226.527344 156.785156 226.527344 152.238281 L 226.527344 39.335938 C 226.527344 34.792969 230.214844 31.101562 234.761719 31.101562 L 273.195312 31.101562 C 277.742188 31.101562 281.433594 34.792969 281.433594 39.335938 Z M 281.433594 39.335938 " fill-opacity="1" fill-rule="evenodd"/><path fill="#e4e8eb" d="M 299.007812 273.929688 L 113.3125 273.929688 L 61.09375 95.789062 L 374.808594 95.789062 L 342.46875 239.808594 C 337.578125 259.835938 319.628906 273.929688 299.007812 273.929688 Z M 299.007812 273.929688 " fill-opacity="1" fill-rule="evenodd"/><path fill="#e4e8eb" d="M 116.664062 266.382812 C 116.957031 266.976562 117.140625 267.632812 117.199219 268.328125 C 117.4375 271.285156 115.226562 273.878906 112.273438 274.117188 C 112.222656 274.121094 112.171875 274.125 112.121094 274.128906 C 104.90625 274.742188 98.105469 277.882812 92.949219 283.042969 C 87.167969 288.820312 83.921875 296.660156 83.921875 304.832031 C 83.921875 313.007812 87.167969 320.84375 92.949219 326.625 C 98.726562 332.402344 106.5625 335.652344 114.738281 335.652344 L 300.28125 335.652344 C 303.25 335.652344 305.65625 338.058594 305.65625 341.023438 C 305.65625 343.988281 303.25 346.398438 300.28125 346.398438 L 114.738281 346.398438 C 103.714844 346.398438 93.140625 342.019531 85.347656 334.222656 C 77.550781 326.429688 73.175781 315.855469 73.175781 304.832031 C 73.175781 293.808594 77.550781 283.238281 85.347656 275.441406 C 90.777344 270.011719 97.558594 266.238281 104.898438 264.449219 L 44.714844 59.019531 L 3.644531 35.308594 C 1.078125 33.828125 0.195312 30.539062 1.679688 27.96875 C 3.160156 25.402344 6.449219 24.519531 9.019531 26.003906 L 51.953125 50.789062 C 53.148438 51.480469 54.03125 52.605469 54.421875 53.933594 Z M 116.664062 266.382812 " fill-opacity="1" fill-rule="evenodd"/><g clip-path="url(#30b52a401b)"><path fill="#a9b0bb" d="M 187.425781 341.023438 C 187.425781 341.921875 187.382812 342.820312 187.292969 343.714844 C 187.207031 344.609375 187.074219 345.5 186.898438 346.378906 C 186.722656 347.261719 186.503906 348.132812 186.242188 348.992188 C 185.980469 349.855469 185.679688 350.699219 185.335938 351.53125 C 184.992188 352.359375 184.609375 353.171875 184.183594 353.964844 C 183.761719 354.757812 183.296875 355.527344 182.800781 356.277344 C 182.300781 357.023438 181.765625 357.746094 181.195312 358.441406 C 180.625 359.136719 180.019531 359.800781 179.382812 360.4375 C 178.75 361.074219 178.082031 361.675781 177.386719 362.246094 C 176.695312 362.816406 175.972656 363.351562 175.222656 363.851562 C 174.476562 364.351562 173.707031 364.8125 172.914062 365.234375 C 172.121094 365.660156 171.308594 366.042969 170.476562 366.386719 C 169.648438 366.730469 168.800781 367.035156 167.941406 367.296875 C 167.082031 367.554688 166.210938 367.773438 165.328125 367.949219 C 164.445312 368.125 163.558594 368.257812 162.664062 368.34375 C 161.769531 368.433594 160.871094 368.476562 159.972656 368.476562 C 159.074219 368.476562 158.175781 368.433594 157.28125 368.34375 C 156.386719 368.257812 155.5 368.125 154.617188 367.949219 C 153.734375 367.773438 152.863281 367.554688 152.003906 367.296875 C 151.144531 367.035156 150.296875 366.730469 149.464844 366.386719 C 148.636719 366.042969 147.824219 365.660156 147.03125 365.234375 C 146.238281 364.8125 145.46875 364.351562 144.71875 363.851562 C 143.972656 363.351562 143.25 362.816406 142.554688 362.246094 C 141.863281 361.675781 141.195312 361.074219 140.558594 360.4375 C 139.925781 359.800781 139.320312 359.136719 138.75 358.441406 C 138.179688 357.746094 137.644531 357.023438 137.144531 356.277344 C 136.648438 355.527344 136.183594 354.757812 135.761719 353.964844 C 135.335938 353.171875 134.953125 352.359375 134.609375 351.53125 C 134.265625 350.699219 133.960938 349.855469 133.703125 348.992188 C 133.441406 348.132812 133.222656 347.261719 133.046875 346.378906 C 132.871094 345.5 132.738281 344.609375 132.652344 343.714844 C 132.5625 342.820312 132.519531 341.921875 132.519531 341.023438 C 132.519531 340.125 132.5625 339.226562 132.652344 338.332031 C 132.738281 337.4375 132.871094 336.550781 133.046875 335.667969 C 133.222656 334.785156 133.441406 333.914062 133.703125 333.054688 C 133.960938 332.195312 134.265625 331.347656 134.609375 330.519531 C 134.953125 329.6875 135.335938 328.875 135.761719 328.082031 C 136.183594 327.289062 136.648438 326.519531 137.144531 325.773438 C 137.644531 325.023438 138.179688 324.304688 138.75 323.609375 C 139.320312 322.914062 139.925781 322.246094 140.558594 321.613281 C 141.195312 320.976562 141.863281 320.375 142.554688 319.804688 C 143.25 319.234375 143.972656 318.699219 144.71875 318.199219 C 145.46875 317.699219 146.238281 317.238281 147.03125 316.8125 C 147.824219 316.390625 148.636719 316.003906 149.464844 315.660156 C 150.296875 315.316406 151.144531 315.015625 152.003906 314.753906 C 152.863281 314.492188 153.734375 314.273438 154.617188 314.097656 C 155.5 313.921875 156.386719 313.792969 157.28125 313.703125 C 158.175781 313.617188 159.074219 313.570312 159.972656 313.570312 C 160.871094 313.570312 161.769531 313.617188 162.664062 313.703125 C 163.558594 313.792969 164.445312 313.921875 165.328125 314.097656 C 166.210938 314.273438 167.082031 314.492188 167.941406 314.753906 C 168.800781 315.015625 169.648438 315.316406 170.476562 315.660156 C 171.308594 316.003906 172.121094 316.390625 172.914062 316.8125 C 173.707031 317.238281 174.476562 317.699219 175.222656 318.199219 C 175.972656 318.699219 176.695312 319.234375 177.386719 319.804688 C 178.082031 320.375 178.75 320.976562 179.382812 321.613281 C 180.019531 322.246094 180.625 322.914062 181.195312 323.609375 C 181.765625 324.304688 182.300781 325.023438 182.800781 325.773438 C 183.296875 326.519531 183.761719 327.289062 184.183594 328.082031 C 184.609375 328.875 184.992188 329.6875 185.335938 330.519531 C 185.679688 331.347656 185.980469 332.195312 186.242188 333.054688 C 186.503906 333.914062 186.722656 334.785156 186.898438 335.667969 C 187.074219 336.550781 187.207031 337.4375 187.292969 338.332031 C 187.382812 339.226562 187.425781 340.125 187.425781 341.023438 Z M 187.425781 341.023438 " fill-opacity="1" fill-rule="nonzero"/></g><g clip-path="url(#da53236a2d)"><path fill="#a9b0bb" d="M 313.863281 341.023438 C 313.863281 341.921875 313.820312 342.820312 313.730469 343.714844 C 313.644531 344.609375 313.511719 345.5 313.335938 346.378906 C 313.160156 347.261719 312.941406 348.132812 312.679688 348.992188 C 312.421875 349.855469 312.117188 350.699219 311.773438 351.53125 C 311.429688 352.359375 311.046875 353.171875 310.621094 353.964844 C 310.199219 354.757812 309.738281 355.527344 309.238281 356.277344 C 308.738281 357.023438 308.203125 357.746094 307.632812 358.441406 C 307.0625 359.136719 306.457031 359.800781 305.824219 360.4375 C 305.1875 361.074219 304.523438 361.675781 303.828125 362.246094 C 303.132812 362.816406 302.410156 363.351562 301.664062 363.851562 C 300.914062 364.351562 300.144531 364.8125 299.351562 365.234375 C 298.558594 365.660156 297.746094 366.042969 296.917969 366.386719 C 296.085938 366.730469 295.242188 367.035156 294.378906 367.296875 C 293.519531 367.554688 292.648438 367.773438 291.765625 367.949219 C 290.882812 368.125 289.996094 368.257812 289.101562 368.34375 C 288.207031 368.433594 287.308594 368.476562 286.410156 368.476562 C 285.511719 368.476562 284.613281 368.433594 283.71875 368.34375 C 282.824219 368.257812 281.9375 368.125 281.054688 367.949219 C 280.171875 367.773438 279.300781 367.554688 278.441406 367.296875 C 277.582031 367.035156 276.734375 366.730469 275.90625 366.386719 C 275.074219 366.042969 274.261719 365.660156 273.46875 365.234375 C 272.675781 364.8125 271.90625 364.351562 271.160156 363.851562 C 270.410156 363.351562 269.691406 362.816406 268.996094 362.246094 C 268.300781 361.675781 267.632812 361.074219 267 360.4375 C 266.363281 359.800781 265.757812 359.136719 265.1875 358.441406 C 264.617188 357.746094 264.082031 357.023438 263.585938 356.277344 C 263.085938 355.527344 262.621094 354.757812 262.199219 353.964844 C 261.777344 353.171875 261.390625 352.359375 261.046875 351.53125 C 260.703125 350.699219 260.402344 349.855469 260.140625 348.992188 C 259.878906 348.132812 259.660156 347.261719 259.484375 346.378906 C 259.308594 345.5 259.179688 344.609375 259.089844 343.714844 C 259 342.820312 258.957031 341.921875 258.957031 341.023438 C 258.957031 340.125 259 339.226562 259.089844 338.332031 C 259.179688 337.4375 259.308594 336.550781 259.484375 335.667969 C 259.660156 334.785156 259.878906 333.914062 260.140625 333.054688 C 260.402344 332.195312 260.703125 331.347656 261.046875 330.519531 C 261.390625 329.6875 261.777344 328.875 262.199219 328.082031 C 262.625 327.289062 263.085938 326.519531 263.585938 325.773438 C 264.082031 325.023438 264.617188 324.304688 265.1875 323.609375 C 265.757812 322.914062 266.363281 322.246094 267 321.613281 C 267.632812 320.976562 268.300781 320.375 268.996094 319.804688 C 269.691406 319.234375 270.410156 318.699219 271.160156 318.199219 C 271.90625 317.699219 272.675781 317.238281 273.46875 316.8125 C 274.261719 316.390625 275.074219 316.003906 275.90625 315.660156 C 276.734375 315.316406 277.582031 315.015625 278.441406 314.753906 C 279.300781 314.492188 280.171875 314.273438 281.054688 314.097656 C 281.9375 313.921875 282.824219 313.792969 283.71875 313.703125 C 284.613281 313.617188 285.511719 313.570312 286.410156 313.570312 C 287.308594 313.570312 288.207031 313.617188 289.101562 313.703125 C 289.996094 313.792969 290.882812 313.921875 291.765625 314.097656 C 292.648438 314.273438 293.519531 314.492188 294.378906 314.753906 C 295.242188 315.015625 296.085938 315.316406 296.917969 315.660156 C 297.746094 316.003906 298.558594 316.390625 299.351562 316.8125 C 300.144531 317.238281 300.914062 317.699219 301.664062 318.199219 C 302.410156 318.699219 303.132812 319.234375 303.828125 319.804688 C 304.523438 320.375 305.1875 320.976562 305.824219 321.613281 C 306.457031 322.246094 307.0625 322.914062 307.632812 323.609375 C 308.203125 324.304688 308.738281 325.023438 309.238281 325.773438 C 309.738281 326.519531 310.199219 327.289062 310.621094 328.082031 C 311.046875 328.875 311.429688 329.6875 311.773438 330.519531 C 312.117188 331.347656 312.421875 332.195312 312.679688 333.054688 C 312.941406 333.914062 313.160156 334.785156 313.335938 335.667969 C 313.511719 336.550781 313.644531 337.4375 313.730469 338.332031 C 313.820312 339.226562 313.863281 340.125 313.863281 341.023438 Z M 313.863281 341.023438 " fill-opacity="1" fill-rule="nonzero"/></g><path fill="#a9b0bb" d="M 186.070312 142.054688 L 186.070312 156.390625 C 186.070312 160.34375 182.859375 163.558594 178.902344 163.558594 L 164.570312 163.558594 C 160.613281 163.558594 157.402344 160.34375 157.402344 156.390625 L 157.402344 142.054688 C 157.402344 138.097656 160.613281 134.886719 164.570312 134.886719 L 178.902344 134.886719 C 182.859375 134.886719 186.070312 138.097656 186.070312 142.054688 Z M 186.070312 142.054688 " fill-opacity="1" fill-rule="evenodd"/><path fill="#a9b0bb" d="M 278.503906 142.054688 L 278.503906 156.390625 C 278.503906 160.34375 275.289062 163.558594 271.335938 163.558594 L 257 163.558594 C 253.042969 163.558594 249.832031 160.34375 249.832031 156.390625 L 249.832031 142.054688 C 249.832031 138.097656 253.042969 134.886719 257 134.886719 L 271.335938 134.886719 C 275.289062 134.886719 278.503906 138.097656 278.503906 142.054688 Z M 278.503906 142.054688 " fill-opacity="1" fill-rule="evenodd"/><path fill="#545454" d="M 162.492188 235.105469 C 161.539062 237.917969 158.484375 239.425781 155.675781 238.472656 C 152.867188 237.523438 151.359375 234.46875 152.3125 231.660156 C 161.152344 205.566406 187.171875 186.523438 217.953125 186.523438 C 248.730469 186.523438 274.753906 205.566406 283.59375 231.660156 C 284.542969 234.46875 283.035156 237.523438 280.226562 238.472656 C 277.417969 239.425781 274.363281 237.917969 273.414062 235.105469 C 265.960938 213.113281 243.894531 197.269531 217.953125 197.269531 C 192.007812 197.269531 169.941406 213.113281 162.492188 235.105469 Z M 162.492188 235.105469 " fill-opacity="1" fill-rule="evenodd"/></svg>