<svg xmlns="http://www.w3.org/2000/svg" xmlns:xlink="http://www.w3.org/1999/xlink" width="1080" zoomAndPan="magnify" viewBox="0 0 810 534.750001" height="713" preserveAspectRatio="xMidYMid meet" version="1.0"><defs><clipPath id="1aff105e3d"><path d="M 620 0 L 809.808594 0 L 809.808594 189 L 620 189 Z M 620 0 " clip-rule="nonzero"/></clipPath></defs><g clip-path="url(#1aff105e3d)"><path fill="#d9d9d9" d="M 802.398438 76.382812 L 792.066406 76.382812 C 790.242188 68.335938 787.136719 60.765625 783.027344 53.875 L 790.632812 46.273438 C 793.328125 43.578125 793.328125 39.230469 790.632812 36.535156 L 773.976562 19.878906 C 771.28125 17.1875 766.933594 17.1875 764.242188 19.878906 L 756.925781 27.195312 C 750.140625 22.929688 742.605469 19.675781 734.625 17.644531 L 734.625 6.90625 C 734.625 3.101562 731.539062 0.015625 727.738281 0.015625 L 704.191406 0.015625 C 700.390625 0.015625 697.304688 3.101562 697.304688 6.90625 L 697.304688 17.253906 C 689.257812 19.078125 681.6875 22.179688 674.78125 26.257812 L 667.179688 18.652344 C 664.484375 15.957031 660.136719 15.957031 657.441406 18.652344 L 640.785156 35.308594 C 638.09375 38.003906 638.09375 42.351562 640.785156 45.042969 L 648.117188 52.375 C 643.820312 59.179688 640.597656 66.664062 638.570312 74.660156 L 627.8125 74.660156 C 624.007812 74.660156 620.921875 77.746094 620.921875 81.546875 L 620.921875 105.09375 C 620.921875 108.894531 624.007812 111.980469 627.8125 111.980469 L 638.175781 111.980469 C 639.96875 120.027344 643.070312 127.597656 647.179688 134.484375 L 639.574219 142.089844 C 636.882812 144.785156 636.882812 149.132812 639.574219 151.824219 L 656.234375 168.484375 C 658.925781 171.175781 663.273438 171.175781 665.96875 168.484375 L 673.28125 161.167969 C 680.085938 165.429688 687.570312 168.6875 695.566406 170.714844 L 695.566406 181.457031 C 695.566406 185.257812 698.652344 188.34375 702.453125 188.34375 L 726 188.34375 C 729.800781 188.34375 732.886719 185.257812 732.886719 181.457031 L 732.886719 171.109375 C 740.933594 169.285156 748.503906 166.214844 755.375 162.105469 C 755.375 162.105469 755.375 162.105469 755.390625 162.105469 L 762.996094 169.710938 C 765.691406 172.402344 770.039062 172.402344 772.730469 169.710938 L 789.390625 153.054688 C 792.082031 150.359375 792.082031 146.011719 789.390625 143.316406 L 782.074219 136.003906 C 786.371094 129.199219 789.628906 121.714844 791.65625 113.71875 L 802.378906 113.71875 C 806.183594 113.71875 809.269531 110.632812 809.269531 106.832031 L 809.269531 83.285156 C 809.285156 79.46875 806.199219 76.382812 802.398438 76.382812 Z M 715.105469 138 C 690.910156 138 671.289062 118.390625 671.289062 94.179688 C 671.289062 69 692.53125 48.796875 718.035156 50.449219 C 739.84375 51.863281 757.558594 69.664062 758.871094 91.488281 C 760.386719 116.925781 740.21875 138 715.105469 138 Z M 715.105469 138 " fill-opacity="1" fill-rule="nonzero"/></g><path fill="#d9d9d9" d="M 444.136719 298.535156 L 437.742188 298.535156 C 436.617188 293.558594 434.710938 288.886719 432.152344 284.625 L 436.855469 279.917969 C 438.511719 278.265625 438.511719 275.554688 436.855469 273.898438 L 426.558594 263.601562 C 424.90625 261.949219 422.195312 261.949219 420.542969 263.601562 L 416.023438 268.121094 C 411.828125 265.476562 407.175781 263.464844 402.230469 262.21875 L 402.230469 255.589844 C 402.230469 253.234375 400.320312 251.324219 397.96875 251.324219 L 383.40625 251.324219 C 381.054688 251.324219 379.144531 253.234375 379.144531 255.589844 L 379.144531 261.980469 C 374.167969 263.105469 369.476562 265.015625 365.214844 267.558594 L 360.527344 262.867188 C 358.875 261.214844 356.164062 261.214844 354.507812 262.867188 L 344.210938 273.167969 C 342.558594 274.820312 342.558594 277.53125 344.210938 279.183594 L 348.746094 283.71875 C 346.085938 287.914062 344.089844 292.550781 342.828125 297.496094 L 336.179688 297.496094 C 333.828125 297.496094 331.917969 299.40625 331.917969 301.757812 L 331.917969 316.320312 C 331.917969 318.671875 333.828125 320.582031 336.179688 320.582031 L 342.589844 320.582031 C 343.699219 325.558594 345.609375 330.230469 348.167969 334.492188 L 343.460938 339.199219 C 341.808594 340.851562 341.808594 343.5625 343.460938 345.21875 L 353.757812 355.515625 C 355.414062 357.167969 358.125 357.167969 359.777344 355.515625 L 364.296875 350.996094 C 368.488281 353.640625 373.125 355.652344 378.070312 356.914062 L 378.070312 363.546875 C 378.070312 365.898438 379.980469 367.808594 382.332031 367.808594 L 396.894531 367.808594 C 399.246094 367.808594 401.15625 365.898438 401.15625 363.546875 L 401.15625 357.152344 C 406.132812 356.027344 410.824219 354.117188 415.066406 351.578125 L 419.773438 356.28125 C 421.425781 357.9375 424.136719 357.9375 425.792969 356.28125 L 436.089844 345.984375 C 437.742188 344.332031 437.742188 341.621094 436.089844 339.964844 L 431.570312 335.449219 C 434.230469 331.253906 436.242188 326.617188 437.488281 321.671875 L 444.121094 321.671875 C 446.472656 321.671875 448.382812 319.761719 448.382812 317.410156 L 448.382812 302.847656 C 448.398438 300.445312 446.492188 298.535156 444.136719 298.535156 Z M 390.175781 336.625 C 375.222656 336.625 363.085938 324.503906 363.085938 309.53125 C 363.085938 293.964844 376.210938 281.46875 392 282.492188 C 405.488281 283.378906 416.433594 294.375 417.25 307.863281 C 418.171875 323.597656 405.691406 336.625 390.175781 336.625 Z M 390.175781 336.625 " fill-opacity="1" fill-rule="nonzero"/><path fill="#ff3131" d="M 350.484375 112.238281 L 350.484375 142.753906 L 391.472656 142.753906 L 391.472656 63.78125 L 342.234375 63.78125 L 287.007812 142.753906 L 330.296875 142.753906 Z M 350.484375 112.238281 " fill-opacity="1" fill-rule="nonzero"/><path fill="#0866ff" d="M 350.484375 177.722656 L 307.179688 177.722656 L 316.554688 163.554688 L 271.050781 165.601562 L 260.789062 180.296875 L 260.789062 215.863281 L 347.398438 215.863281 L 347.398438 249.382812 L 391.472656 249.382812 L 391.472656 215.863281 L 412.613281 215.863281 L 412.613281 177.722656 L 391.472656 177.722656 L 391.472656 160.195312 L 350.484375 162.039062 Z M 350.484375 177.722656 " fill-opacity="1" fill-rule="nonzero"/><path fill="#0866ff" d="M 492.472656 205.445312 C 468.363281 198.914062 470.613281 175.917969 477.726562 148.570312 L 435.511719 139.140625 C 422.929688 190.390625 431.691406 231.703125 481.679688 245.257812 C 533.425781 259.269531 562.101562 225.394531 576.664062 171.636719 C 576.746094 171.328125 576.800781 171.023438 576.882812 170.714844 L 534.585938 161.269531 C 526.84375 189.691406 517.332031 212.179688 492.472656 205.445312 Z M 492.472656 205.445312 " fill-opacity="1" fill-rule="nonzero"/><path fill="#ff3131" d="M 520.929688 100.457031 C 543.109375 106.472656 542.886719 126.8125 537.328125 150.664062 L 579.066406 161.96875 C 589.996094 113.140625 580.292969 73.789062 531.703125 60.628906 C 483.128906 47.464844 454.878906 76.535156 439.671875 124.207031 L 481.425781 135.507812 C 488.671875 112.132812 498.746094 94.453125 520.929688 100.457031 Z M 520.929688 100.457031 " fill-opacity="1" fill-rule="nonzero"/><path fill="#0866ff" d="M 734.046875 144.800781 L 693.078125 146.640625 L 693.078125 177.722656 L 649.769531 177.722656 L 669.617188 147.699219 L 624.742188 149.710938 L 603.363281 180.296875 L 603.363281 215.863281 L 689.972656 215.863281 L 689.972656 249.382812 L 734.046875 249.382812 L 734.046875 215.863281 L 755.1875 215.863281 L 755.1875 177.722656 L 734.046875 177.722656 Z M 734.046875 144.800781 " fill-opacity="1" fill-rule="nonzero"/><path fill="#ff3131" d="M 693.078125 112.238281 L 693.078125 142.753906 L 734.046875 142.753906 L 734.046875 63.78125 L 684.824219 63.78125 L 629.601562 142.753906 L 672.890625 142.753906 Z M 693.078125 112.238281 " fill-opacity="1" fill-rule="nonzero"/><path fill="#545454" d="M 410.15625 288 L 395.019531 288 L 395.019531 296.300781 L 408.402344 296.300781 L 408.402344 304.027344 L 395.019531 304.027344 L 395.019531 313.027344 L 410.15625 313.027344 L 410.15625 321.042969 L 385.011719 321.042969 L 385.011719 280.003906 L 410.15625 280.003906 Z M 410.15625 288 " fill-opacity="1" fill-rule="nonzero"/><path fill="#545454" d="M 450.992188 280.003906 C 461.050781 280.003906 466.078125 285.800781 466.078125 292.925781 C 466.078125 298.074219 463.265625 302.917969 456.957031 304.792969 L 466.4375 321.039062 L 455.152344 321.039062 L 446.609375 305.542969 L 444.207031 305.542969 L 444.207031 321.039062 L 434.214844 321.039062 L 434.214844 280.003906 Z M 450.394531 288.304688 L 444.207031 288.304688 L 444.207031 298.484375 L 450.394531 298.484375 C 454.128906 298.484375 455.882812 296.558594 455.882812 293.335938 C 455.902344 290.285156 454.144531 288.304688 450.394531 288.304688 Z M 450.394531 288.304688 " fill-opacity="1" fill-rule="nonzero"/><path fill="#545454" d="M 506.65625 280.003906 C 516.71875 280.003906 521.746094 285.800781 521.746094 292.925781 C 521.746094 298.074219 518.933594 302.917969 512.625 304.792969 L 522.105469 321.039062 L 510.816406 321.039062 L 502.277344 305.542969 L 499.871094 305.542969 L 499.871094 321.039062 L 489.882812 321.039062 L 489.882812 280.003906 Z M 506.0625 288.304688 L 499.871094 288.304688 L 499.871094 298.484375 L 506.0625 298.484375 C 509.792969 298.484375 511.550781 296.558594 511.550781 293.335938 C 511.566406 290.285156 509.8125 288.304688 506.0625 288.304688 Z M 506.0625 288.304688 " fill-opacity="1" fill-rule="nonzero"/><path fill="#545454" d="M 564.949219 321.449219 C 553.320312 321.449219 543.84375 312.738281 543.84375 300.410156 C 543.84375 288.085938 553.320312 279.421875 564.949219 279.421875 C 576.644531 279.421875 585.9375 288.085938 585.9375 300.410156 C 585.9375 312.738281 576.578125 321.449219 564.949219 321.449219 Z M 564.949219 312.328125 C 571.496094 312.328125 575.757812 307.589844 575.757812 300.394531 C 575.757812 293.078125 571.496094 288.460938 564.949219 288.460938 C 558.285156 288.460938 554.070312 293.078125 554.070312 300.394531 C 554.074219 307.589844 558.285156 312.328125 564.949219 312.328125 Z M 564.949219 312.328125 " fill-opacity="1" fill-rule="nonzero"/><path fill="#545454" d="M 625.816406 280.003906 C 635.875 280.003906 640.90625 285.800781 640.90625 292.925781 C 640.90625 298.074219 638.09375 302.917969 631.785156 304.792969 L 641.261719 321.039062 L 629.976562 321.039062 L 621.433594 305.542969 L 619.03125 305.542969 L 619.03125 321.039062 L 609.039062 321.039062 L 609.039062 280.003906 Z M 625.238281 288.304688 L 619.046875 288.304688 L 619.046875 298.484375 L 625.238281 298.484375 C 628.96875 298.484375 630.726562 296.558594 630.726562 293.335938 C 630.726562 290.285156 628.988281 288.304688 625.238281 288.304688 Z M 625.238281 288.304688 " fill-opacity="1" fill-rule="nonzero"/><path fill="#a6a6a6" d="M 103.882812 358.652344 C 103.882812 358.652344 111.128906 366.050781 108.109375 372.871094 C 105.09375 379.707031 104.871094 389.050781 107.617188 392.835938 C 110.359375 396.621094 113.226562 399.382812 112.457031 404.105469 C 111.691406 408.828125 92.269531 417.488281 77.832031 405.929688 C 63.390625 394.371094 74.453125 374.816406 76.789062 367.824219 C 79.125 360.835938 82.109375 355.804688 82.109375 355.804688 Z M 103.882812 358.652344 " fill-opacity="1" fill-rule="nonzero"/><path fill="#d9d9d9" d="M 109.183594 361.550781 C 108.449219 364.074219 107.992188 365.574219 107.992188 365.574219 C 107.992188 365.574219 104.375 363.015625 94.878906 361.023438 C 86.234375 359.230469 79.074219 361.910156 79.074219 361.910156 C 79.074219 361.910156 79.433594 359.964844 80.011719 356.945312 C 81.648438 348.386719 84.566406 330.929688 86.558594 324.246094 C 87.035156 322.695312 86.320312 312.074219 86.269531 299.558594 C 86.269531 298.144531 86.304688 296.710938 86.304688 295.277344 C 86.355469 289.617188 86.59375 283.71875 87.191406 278.246094 C 89.234375 258.828125 102.5 250.679688 102.5 250.679688 L 114.265625 272.621094 C 114.265625 272.621094 114.433594 282.304688 114.675781 294.289062 C 114.707031 295.707031 114.726562 297.171875 114.757812 298.636719 C 114.914062 306.328125 115.082031 314.5625 115.253906 321.636719 C 115.644531 336.554688 111.332031 353.859375 109.183594 361.550781 Z M 109.183594 361.550781 " fill-opacity="1" fill-rule="nonzero"/><path fill="#545454" d="M 119.226562 300.191406 C 117.878906 299.507812 116.34375 298.980469 114.742188 298.605469 C 105.996094 296.4375 94.128906 297.992188 86.269531 299.542969 C 86.269531 298.125 86.304688 296.695312 86.304688 295.261719 C 94.128906 293.746094 105.925781 292.160156 114.65625 294.273438 C 116.089844 294.597656 117.417969 295.039062 118.644531 295.585938 C 118.835938 297.085938 119.039062 298.636719 119.226562 300.191406 Z M 119.226562 300.191406 " fill-opacity="1" fill-rule="nonzero"/><path fill="#545454" d="M 107.992188 365.558594 C 107.992188 365.558594 104.375 363 94.878906 361.003906 C 86.234375 359.214844 79.074219 361.890625 79.074219 361.890625 C 79.074219 361.890625 78.460938 358.875 79.960938 356.929688 C 79.960938 356.929688 79.996094 356.929688 80.011719 356.929688 C 81.1875 356.691406 96.464844 353.945312 109.183594 361.535156 C 109.183594 361.566406 109.21875 361.566406 109.21875 361.566406 C 109.21875 361.566406 110.121094 364.484375 107.992188 365.558594 Z M 107.992188 365.558594 " fill-opacity="1" fill-rule="nonzero"/><path fill="#a6a6a6" d="M 151.925781 489.25 C 151.925781 489.25 152.113281 521.390625 150.664062 522.582031 C 149.214844 523.792969 80.847656 522.582031 80.847656 522.582031 C 80.847656 522.582031 79.089844 509.898438 86.523438 505.90625 C 93.957031 501.917969 109.542969 499.566406 110.257812 498.117188 C 110.972656 496.667969 110.992188 488.6875 110.992188 488.6875 L 133.105469 479.839844 Z M 151.925781 489.25 " fill-opacity="1" fill-rule="nonzero"/><path fill="#d9d9d9" d="M 80.832031 522.582031 C 80.832031 522.582031 81.5625 528.019531 84.820312 528.140625 C 88.078125 528.261719 150.050781 528.140625 150.050781 528.140625 C 150.050781 528.140625 150.785156 526.453125 150.648438 522.582031 Z M 80.832031 522.582031 " fill-opacity="1" fill-rule="nonzero"/><path fill="#a6a6a6" d="M 246.328125 466.59375 C 246.328125 466.59375 261.964844 494.65625 261.28125 496.410156 C 260.601562 498.167969 200.089844 530.050781 200.089844 530.050781 C 200.089844 530.050781 192.453125 519.785156 197.039062 512.710938 C 201.625 505.636719 214.15625 496.070312 214.089844 494.449219 C 214.019531 492.832031 210.183594 485.839844 210.183594 485.839844 L 229.484375 475.558594 Z M 246.328125 466.59375 " fill-opacity="1" fill-rule="nonzero"/><path fill="#d9d9d9" d="M 200.089844 530.050781 C 200.089844 530.050781 203.347656 534.464844 206.261719 533 C 209.179688 531.535156 263.429688 501.578125 263.429688 501.578125 C 263.429688 501.578125 263.242188 499.753906 261.28125 496.410156 Z M 200.089844 530.050781 " fill-opacity="1" fill-rule="nonzero"/><path fill="#545454" d="M 253.4375 260.191406 L 237.414062 252.910156 C 250.609375 223.875 252.792969 199.480469 243.875 180.417969 C 232.078125 155.148438 204.046875 147.121094 203.773438 147.050781 L 208.394531 130.070312 C 209.859375 130.460938 244.351562 140.113281 259.730469 172.761719 C 271.035156 196.734375 268.921875 226.144531 253.4375 260.191406 Z M 253.4375 260.191406 " fill-opacity="1" fill-rule="nonzero"/><path fill="#a6a6a6" d="M 204.761719 147.339844 C 204.199219 147.152344 203.84375 147.050781 203.773438 147.035156 L 208.410156 130.054688 C 208.410156 130.054688 209.058594 130.222656 210.21875 130.597656 Z M 204.761719 147.339844 " fill-opacity="1" fill-rule="nonzero"/><path fill="#a6a6a6" d="M 258.671875 247.507812 L 242.136719 241.472656 C 242.460938 240.601562 242.765625 239.75 243.054688 238.878906 L 259.679688 244.660156 C 259.355469 245.613281 259.015625 246.550781 258.671875 247.507812 Z M 263.226562 232.945312 L 246.175781 228.597656 C 246.398438 227.730469 246.621094 226.859375 246.808594 226.007812 L 263.957031 229.945312 C 263.71875 230.933594 263.480469 231.941406 263.226562 232.945312 Z M 266.125 217.6875 L 248.648438 215.605469 C 248.75 214.722656 248.851562 213.851562 248.921875 212.980469 L 266.449219 214.585938 C 266.363281 215.605469 266.242188 216.628906 266.125 217.6875 Z M 249.175781 202.683594 C 249.144531 201.832031 249.074219 200.980469 249.007812 200.144531 L 266.550781 198.710938 C 266.636719 199.769531 266.703125 200.824219 266.753906 201.917969 Z M 247.386719 190.238281 C 247.183594 189.417969 246.960938 188.617188 246.722656 187.832031 L 263.582031 182.785156 C 263.890625 183.808594 264.179688 184.867188 264.453125 185.925781 Z M 243.039062 178.679688 C 242.648438 177.929688 242.253906 177.195312 241.847656 176.480469 L 257.140625 167.765625 C 257.667969 168.703125 258.179688 169.640625 258.691406 170.613281 Z M 236.183594 168.347656 C 235.640625 167.699219 235.09375 167.066406 234.53125 166.453125 L 247.539062 154.605469 C 248.257812 155.390625 248.972656 156.207031 249.671875 157.042969 Z M 227.148438 159.546875 C 226.46875 159.003906 225.800781 158.492188 225.121094 157.996094 L 235.589844 143.847656 C 236.425781 144.476562 237.277344 145.125 238.128906 145.789062 Z M 216.425781 152.457031 C 215.640625 152.03125 214.875 151.636719 214.140625 151.261719 L 222.050781 135.542969 C 222.953125 136.003906 223.910156 136.496094 224.863281 137.007812 Z M 216.425781 152.457031 " fill-opacity="1" fill-rule="nonzero"/><path fill="#a6a6a6" d="M 253.457031 260.175781 L 237.414062 252.929688 L 237.992188 251.648438 L 254.085938 258.757812 Z M 253.457031 260.175781 " fill-opacity="1" fill-rule="nonzero"/><path fill="#a6a6a6" d="M 185.703125 220.109375 C 185.703125 220.109375 227.523438 203.128906 244.078125 213.902344 C 260.632812 224.660156 280.921875 331.066406 274.71875 345.558594 C 268.511719 360.050781 218.828125 384.054688 218.828125 384.054688 Z M 185.703125 220.109375 " fill-opacity="1" fill-rule="nonzero"/><path fill="#d9d9d9" d="M 253.949219 349.359375 C 247.402344 283.429688 229.878906 232.996094 229.707031 232.503906 L 231.085938 232.027344 C 231.257812 232.519531 248.851562 283.105469 255.417969 349.222656 Z M 253.949219 349.359375 " fill-opacity="1" fill-rule="nonzero"/><path fill="#d9d9d9" d="M 246.328125 466.59375 C 246.328125 466.59375 242.628906 474.195312 231.871094 479.703125 C 219.5625 486.046875 210.203125 485.839844 210.203125 485.839844 C 210.203125 485.839844 180.347656 451.726562 174.3125 428.09375 C 173.902344 426.421875 173.578125 424.839844 173.410156 423.320312 C 173.324219 422.554688 173.289062 421.804688 173.253906 421.070312 C 172.726562 397.898438 173.785156 382.0625 173.785156 382.0625 C 173.785156 382.0625 155.78125 412.683594 153.511719 422.707031 C 153.460938 422.910156 153.425781 423.117188 153.394531 423.285156 C 153.222656 424.222656 153.070312 425.65625 152.949219 427.480469 C 152.046875 439.707031 151.925781 469.183594 151.925781 482.5 C 151.925781 486.660156 151.925781 489.25 151.925781 489.25 C 151.925781 489.25 140.964844 486.796875 130.667969 486.351562 C 116.054688 485.738281 110.992188 488.722656 110.992188 488.722656 C 110.378906 487.75 109.644531 485.550781 108.878906 482.5 C 104.972656 467.34375 99.722656 430.789062 100.164062 415.835938 C 100.199219 414.746094 100.25 413.789062 100.335938 412.953125 C 100.386719 412.390625 100.488281 411.8125 100.589844 411.164062 C 103.082031 395.238281 116.890625 359.964844 116.890625 359.964844 C 116.890625 359.964844 115.714844 356.417969 113.90625 350.179688 C 113.617188 349.207031 113.328125 348.183594 113.019531 347.074219 C 112.558594 345.4375 112.046875 343.648438 111.519531 341.773438 C 111.246094 340.785156 110.992188 339.726562 110.703125 338.671875 C 110.292969 337.117188 109.882812 335.5 109.472656 333.792969 C 109.21875 332.769531 108.945312 331.75 108.65625 330.65625 C 107.019531 323.972656 105.28125 316.371094 103.644531 308.101562 C 97.574219 277.71875 100.335938 229.707031 100.335938 229.707031 L 200.722656 220.550781 C 200.722656 220.550781 229.347656 266.039062 236.933594 310.84375 C 237.140625 311.953125 237.3125 313.097656 237.464844 314.222656 C 237.703125 315.839844 237.90625 317.445312 238.078125 319.027344 C 238.230469 320.207031 238.316406 321.347656 238.402344 322.457031 C 238.554688 323.921875 238.640625 325.355469 238.675781 326.804688 L 238.675781 326.839844 C 238.726562 328.066406 238.792969 329.277344 238.792969 330.503906 C 238.828125 334.542969 238.625 338.535156 238.113281 342.402344 C 232.570312 385.777344 227.40625 398.480469 228.785156 412.121094 C 228.957031 413.671875 229.160156 415.222656 229.519531 416.808594 C 229.757812 418.019531 230.046875 419.246094 230.40625 420.507812 C 235.351562 438.734375 246.328125 466.59375 246.328125 466.59375 Z M 246.328125 466.59375 " fill-opacity="1" fill-rule="nonzero"/><path fill="#a6a6a6" d="M 143.300781 324.058594 C 142.804688 324.058594 142.378906 323.683594 142.328125 323.1875 L 135.421875 266.328125 C 135.355469 265.785156 135.746094 265.289062 136.292969 265.222656 C 136.839844 265.171875 137.332031 265.546875 137.402344 266.089844 L 144.304688 322.949219 C 144.375 323.496094 143.980469 323.992188 143.4375 324.058594 C 143.386719 324.058594 143.351562 324.058594 143.300781 324.058594 Z M 143.300781 324.058594 " fill-opacity="1" fill-rule="nonzero"/><path fill="#a6a6a6" d="M 237.464844 314.203125 C 214.855469 329.515625 173.9375 330.09375 172.148438 330.128906 L 172.113281 327.078125 C 172.558594 327.078125 215.4375 326.496094 236.917969 310.828125 C 237.140625 311.953125 237.328125 313.097656 237.464844 314.203125 Z M 237.464844 314.203125 " fill-opacity="1" fill-rule="nonzero"/><path fill="#a6a6a6" d="M 238.402344 322.457031 C 215.605469 337.273438 175.675781 337.816406 173.921875 337.851562 L 173.886719 334.800781 C 174.328125 334.800781 216.375 334.21875 238.078125 319.027344 C 238.230469 320.1875 238.316406 321.332031 238.402344 322.457031 Z M 238.402344 322.457031 " fill-opacity="1" fill-rule="nonzero"/><path fill="#a6a6a6" d="M 238.675781 326.785156 L 238.675781 326.820312 C 217.261719 342.589844 174.039062 343.222656 173.597656 343.238281 L 173.632812 346.257812 C 175.421875 346.257812 216.152344 345.675781 238.792969 330.488281 Z M 238.675781 326.785156 " fill-opacity="1" fill-rule="nonzero"/><path fill="#a6a6a6" d="M 130.921875 333.691406 C 130.359375 333.726562 125.960938 334.050781 119.480469 334.050781 C 116.515625 334.050781 113.140625 334 109.472656 333.792969 C 109.21875 332.769531 108.945312 331.75 108.65625 330.65625 C 120.964844 331.355469 130.480469 330.65625 130.683594 330.65625 Z M 130.921875 333.691406 " fill-opacity="1" fill-rule="nonzero"/><path fill="#a6a6a6" d="M 129.898438 341.515625 C 129.335938 341.550781 124.9375 341.875 118.457031 341.875 C 116.34375 341.875 114.027344 341.839844 111.535156 341.757812 C 111.265625 340.765625 111.007812 339.710938 110.71875 338.652344 C 121.511719 339.097656 129.488281 338.5 129.660156 338.5 Z M 129.898438 341.515625 " fill-opacity="1" fill-rule="nonzero"/><path fill="#a6a6a6" d="M 130.921875 349.871094 C 130.359375 349.921875 125.960938 350.246094 119.480469 350.246094 C 117.761719 350.246094 115.902344 350.210938 113.90625 350.160156 C 113.617188 349.191406 113.328125 348.167969 113.019531 347.058594 C 123.164062 347.417969 130.496094 346.855469 130.683594 346.855469 Z M 130.921875 349.871094 " fill-opacity="1" fill-rule="nonzero"/><path fill="#a6a6a6" d="M 121.015625 327.453125 C 121.015625 327.453125 172.726562 322.199219 174.140625 323.273438 C 175.558594 324.332031 175.933594 342.488281 178.898438 353.894531 C 178.898438 353.894531 132.25 359.710938 127.851562 358.175781 C 123.472656 356.640625 119.804688 332.6875 121.015625 327.453125 Z M 121.015625 327.453125 " fill-opacity="1" fill-rule="nonzero"/><path fill="#d9d9d9" d="M 118.730469 325.796875 C 118.730469 325.796875 170.441406 320.546875 171.859375 321.621094 C 173.273438 322.679688 173.648438 340.835938 176.613281 352.242188 C 176.613281 352.242188 129.96875 358.054688 125.570312 356.519531 C 121.1875 354.988281 117.519531 331.03125 118.730469 325.796875 Z M 118.730469 325.796875 " fill-opacity="1" fill-rule="nonzero"/><path fill="#a6a6a6" d="M 125.585938 357.511719 C 125.484375 357.511719 125.363281 357.492188 125.261719 357.457031 C 119.976562 355.617188 116.667969 330.417969 117.792969 325.578125 C 117.894531 325.167969 118.238281 324.859375 118.664062 324.824219 C 153.222656 321.3125 171.347656 319.984375 172.472656 320.835938 C 172.914062 321.160156 173 321.792969 172.660156 322.21875 C 172.371094 322.59375 171.875 322.710938 171.449219 322.523438 C 168.910156 322.03125 138.679688 324.792969 119.585938 326.71875 C 118.679688 333.351562 122.671875 354.457031 125.910156 355.601562 C 126.421875 355.789062 126.695312 356.351562 126.523438 356.863281 C 126.371094 357.253906 125.996094 357.511719 125.585938 357.511719 Z M 171.261719 322.40625 Z M 171.261719 322.40625 " fill-opacity="1" fill-rule="nonzero"/><path fill="#a6a6a6" d="M 116.90625 360.953125 C 116.5 360.953125 116.105469 360.699219 115.96875 360.273438 C 115.902344 360.050781 108.691406 338.347656 102.6875 308.269531 C 101 299.816406 99.839844 289.210938 99.226562 276.765625 C 99.191406 276.21875 99.621094 275.757812 100.164062 275.722656 C 100.710938 275.671875 101.171875 276.117188 101.203125 276.660156 C 101.800781 289.023438 102.960938 299.523438 104.632812 307.878906 C 110.617188 337.816406 117.777344 359.417969 117.863281 359.640625 C 118.03125 360.152344 117.761719 360.714844 117.230469 360.886719 C 117.113281 360.9375 117.007812 360.953125 116.90625 360.953125 Z M 116.90625 360.953125 " fill-opacity="1" fill-rule="nonzero"/><path fill="#a6a6a6" d="M 204.167969 354.117188 C 204.167969 354.117188 213 359.503906 211.753906 366.871094 C 210.507812 374.234375 212.589844 383.355469 216.167969 386.359375 C 219.75 389.359375 223.210938 391.335938 223.621094 396.09375 C 224.027344 400.847656 207.335938 414.027344 190.492188 406.355469 C 173.648438 398.683594 179.597656 377.03125 180.144531 369.667969 C 180.6875 362.300781 182.359375 356.707031 182.359375 356.707031 Z M 204.167969 354.117188 " fill-opacity="1" fill-rule="nonzero"/><path fill="#d9d9d9" d="M 214.003906 361.191406 C 213.355469 362.898438 212.621094 364.5 211.839844 366.035156 C 211.839844 366.035156 208.496094 360.851562 197.824219 358.089844 C 187.390625 355.394531 182.359375 356.707031 182.359375 356.707031 C 182.835938 355.070312 183.179688 353.296875 183.46875 351.421875 C 186.230469 333.707031 181.796875 306.839844 177.3125 286.429688 C 177.023438 285.050781 176.734375 283.703125 176.410156 282.40625 C 173.121094 268.070312 170.066406 257.769531 170.066406 257.769531 L 210.664062 247.832031 C 210.664062 247.832031 214.070312 261.84375 216.765625 280.890625 C 216.96875 282.390625 217.175781 283.941406 217.347656 285.492188 C 220.484375 309.875 221.984375 340.75 214.003906 361.191406 Z M 214.003906 361.191406 " fill-opacity="1" fill-rule="nonzero"/><path fill="#545454" d="M 217.347656 285.492188 C 205.699219 279.679688 182.941406 284.964844 177.3125 286.429688 C 177.023438 285.050781 176.734375 283.703125 176.410156 282.40625 C 179.75 281.503906 204.117188 275.230469 216.765625 280.890625 C 216.96875 282.390625 217.175781 283.941406 217.347656 285.492188 Z M 217.347656 285.492188 " fill-opacity="1" fill-rule="nonzero"/><path fill="#a6a6a6" d="M 182.359375 357.699219 C 182.273438 357.699219 182.171875 357.679688 182.085938 357.664062 C 181.558594 357.511719 181.253906 356.964844 181.40625 356.4375 C 181.832031 354.96875 182.191406 353.28125 182.496094 351.269531 C 185.496094 331.902344 179.9375 301.570312 174.738281 279.542969 C 174.621094 279.015625 174.945312 278.484375 175.472656 278.347656 C 176 278.210938 176.53125 278.554688 176.664062 279.082031 C 181.898438 301.28125 187.507812 331.882812 184.457031 351.558594 C 184.132812 353.640625 183.757812 355.414062 183.316406 356.964844 C 183.179688 357.40625 182.785156 357.699219 182.359375 357.699219 Z M 182.359375 357.699219 " fill-opacity="1" fill-rule="nonzero"/><path fill="#a6a6a6" d="M 211.839844 367.023438 C 211.683594 367.023438 211.53125 366.988281 211.378906 366.902344 C 210.902344 366.648438 210.714844 366.050781 210.953125 365.574219 C 211.753906 364.023438 212.46875 362.4375 213.082031 360.835938 C 227.761719 323.222656 209.878906 248.820312 209.707031 248.070312 C 209.570312 247.539062 209.894531 247.011719 210.441406 246.875 C 210.96875 246.757812 211.496094 247.0625 211.632812 247.609375 C 211.820312 248.359375 229.84375 323.375 214.941406 361.550781 C 214.3125 363.203125 213.5625 364.875 212.726562 366.476562 C 212.539062 366.820312 212.195312 367.023438 211.839844 367.023438 Z M 211.839844 367.023438 " fill-opacity="1" fill-rule="nonzero"/><path fill="#d9d9d9" d="M 214.140625 185.429688 C 203.773438 231.105469 164.457031 262.75 119.941406 265.339844 C 110.496094 265.886719 100.8125 265.117188 91.09375 262.953125 C 35.683594 250.386719 1.039062 195.285156 13.605469 139.890625 C 14.492188 136.003906 15.617188 132.148438 16.914062 128.449219 C 20.78125 117.488281 26.375 107.480469 33.332031 98.765625 C 33.332031 98.765625 33.363281 98.75 33.398438 98.714844 C 38.480469 92.253906 44.328125 86.507812 50.753906 81.546875 C 55.460938 77.898438 60.472656 74.625 65.757812 71.847656 C 69.851562 69.648438 74.078125 67.753906 78.460938 66.152344 C 96.464844 59.519531 116.550781 57.832031 136.667969 62.402344 C 153.921875 66.339844 169.164062 74.371094 181.59375 85.28125 C 182.804688 86.320312 183.980469 87.414062 185.121094 88.519531 C 188.53125 91.792969 191.71875 95.324219 194.652344 99.039062 C 195.539062 100.183594 196.410156 101.324219 197.261719 102.519531 C 213.902344 125.585938 220.941406 155.457031 214.140625 185.429688 Z M 214.140625 185.429688 " fill-opacity="1" fill-rule="nonzero"/><path fill="#a6a6a6" d="M 197.246094 102.5 C 181.234375 105.945312 164.066406 118.085938 163.894531 118.203125 L 161.609375 114.980469 C 162.378906 114.453125 178.4375 103.0625 194.652344 99.023438 C 195.523438 100.183594 196.390625 101.324219 197.246094 102.5 Z M 197.246094 102.5 " fill-opacity="1" fill-rule="nonzero"/><path fill="#a6a6a6" d="M 185.121094 88.519531 C 168.925781 91.742188 151.261719 104.273438 151.074219 104.410156 L 148.753906 101.1875 C 149.523438 100.660156 165.445312 89.355469 181.574219 85.28125 C 182.785156 86.320312 183.964844 87.414062 185.121094 88.519531 Z M 185.121094 88.519531 " fill-opacity="1" fill-rule="nonzero"/><path fill="#a6a6a6" d="M 113.992188 266.5 C 109.59375 266.5 105.144531 266.210938 100.746094 265.648438 C 100.199219 265.578125 99.824219 265.085938 99.890625 264.539062 C 99.960938 263.992188 100.453125 263.601562 101 263.6875 C 107.292969 264.503906 113.652344 264.726562 119.890625 264.351562 C 149.027344 262.664062 181.183594 243.875 199.886719 217.601562 C 200.210938 217.160156 200.824219 217.054688 201.269531 217.363281 C 201.710938 217.6875 201.8125 218.300781 201.507812 218.746094 C 182.480469 245.476562 149.726562 264.589844 120.011719 266.3125 C 118.015625 266.449219 116.003906 266.5 113.992188 266.5 Z M 113.992188 266.5 " fill-opacity="1" fill-rule="nonzero"/><path fill="#a6a6a6" d="M 78.425781 66.152344 C 63.132812 80.25 60.421875 99.328125 60.386719 99.519531 L 54.589844 98.75 C 54.675781 98 56.570312 84.90625 65.726562 71.828125 C 69.832031 69.648438 74.0625 67.738281 78.425781 66.152344 Z M 78.425781 66.152344 " fill-opacity="1" fill-rule="nonzero"/><path fill="#a6a6a6" d="M 50.722656 81.546875 C 36.179688 100.269531 30.007812 124 29.921875 124.289062 L 24.242188 122.839844 C 24.449219 122.003906 27.175781 111.417969 33.3125 98.75 C 33.3125 98.75 33.347656 98.75 33.363281 98.699219 C 38.464844 92.253906 44.3125 86.507812 50.722656 81.546875 Z M 50.722656 81.546875 " fill-opacity="1" fill-rule="nonzero"/><path fill="#545454" d="M 164.628906 225.75 C 154.824219 246.84375 100.796875 265.152344 91.09375 262.9375 C 71.300781 258.433594 54.183594 248.511719 40.917969 235.09375 C 16.964844 210.953125 5.539062 175.488281 13.605469 139.90625 C 14.492188 135.988281 15.601562 132.132812 16.894531 128.449219 C 42.570312 92.628906 87.855469 77.898438 125.652344 95.476562 C 140.316406 102.28125 151.960938 113.054688 160.109375 126.199219 C 176.136719 151.925781 179.34375 194.109375 164.628906 225.75 Z M 164.628906 225.75 " fill-opacity="1" fill-rule="nonzero"/><path fill="#a6a6a6" d="M 164.410156 103.988281 C 164.742188 104.570312 165.046875 105.164062 165.324219 105.773438 C 165.605469 106.378906 165.855469 106.996094 166.082031 107.621094 C 166.308594 108.25 166.503906 108.882812 166.675781 109.523438 C 166.84375 110.164062 166.984375 110.804688 167.09375 111.453125 C 167.207031 112.101562 167.289062 112.75 167.34375 113.398438 C 167.394531 114.046875 167.417969 114.691406 167.410156 115.335938 C 167.40625 115.980469 167.371094 116.617188 167.304688 117.25 C 167.238281 117.882812 167.144531 118.503906 167.019531 119.121094 C 166.894531 119.734375 166.742188 120.335938 166.558594 120.929688 C 166.378906 121.519531 166.167969 122.097656 165.933594 122.660156 C 165.695312 123.222656 165.429688 123.765625 165.140625 124.296875 C 164.847656 124.824219 164.53125 125.332031 164.191406 125.820312 C 163.851562 126.308594 163.484375 126.773438 163.097656 127.21875 C 162.707031 127.664062 162.296875 128.082031 161.867188 128.480469 C 161.433594 128.875 160.980469 129.242188 160.511719 129.585938 C 160.039062 129.929688 159.550781 130.246094 159.042969 130.535156 C 158.539062 130.820312 158.015625 131.082031 157.480469 131.308594 C 156.945312 131.539062 156.394531 131.738281 155.835938 131.90625 C 155.273438 132.078125 154.703125 132.214844 154.121094 132.320312 C 153.542969 132.425781 152.953125 132.503906 152.359375 132.546875 C 151.765625 132.589844 151.167969 132.601562 150.566406 132.582031 C 149.960938 132.558594 149.359375 132.507812 148.753906 132.425781 C 148.148438 132.339844 147.546875 132.226562 146.945312 132.078125 C 146.34375 131.933594 145.746094 131.753906 145.15625 131.546875 C 144.566406 131.339844 143.980469 131.101562 143.402344 130.835938 C 142.828125 130.570312 142.261719 130.273438 141.703125 129.949219 C 141.148438 129.625 140.605469 129.277344 140.074219 128.898438 C 139.542969 128.519531 139.03125 128.117188 138.53125 127.691406 C 138.03125 127.265625 137.550781 126.816406 137.085938 126.339844 C 136.625 125.867188 136.179688 125.375 135.757812 124.859375 C 135.335938 124.347656 134.933594 123.8125 134.554688 123.261719 C 134.175781 122.714844 133.820312 122.148438 133.492188 121.566406 C 133.160156 120.984375 132.855469 120.390625 132.574219 119.78125 C 132.296875 119.175781 132.042969 118.558594 131.820312 117.933594 C 131.59375 117.304688 131.394531 116.671875 131.226562 116.03125 C 131.058594 115.390625 130.917969 114.75 130.804688 114.101562 C 130.691406 113.453125 130.609375 112.804688 130.558594 112.15625 C 130.503906 111.507812 130.480469 110.863281 130.488281 110.21875 C 130.496094 109.574219 130.53125 108.9375 130.597656 108.304688 C 130.664062 107.671875 130.757812 107.050781 130.882812 106.433594 C 131.003906 105.820312 131.160156 105.21875 131.339844 104.625 C 131.523438 104.035156 131.730469 103.457031 131.96875 102.894531 C 132.207031 102.332031 132.46875 101.789062 132.761719 101.261719 C 133.050781 100.730469 133.367188 100.222656 133.707031 99.734375 C 134.050781 99.246094 134.414062 98.78125 134.804688 98.335938 C 135.191406 97.890625 135.601562 97.472656 136.035156 97.078125 C 136.464844 96.679688 136.917969 96.3125 137.390625 95.96875 C 137.859375 95.625 138.351562 95.308594 138.855469 95.019531 C 139.363281 94.734375 139.882812 94.472656 140.421875 94.246094 C 140.957031 94.015625 141.503906 93.816406 142.066406 93.648438 C 142.628906 93.480469 143.199219 93.339844 143.777344 93.234375 C 144.359375 93.128906 144.945312 93.054688 145.539062 93.007812 C 146.136719 92.964844 146.734375 92.953125 147.335938 92.976562 C 147.9375 92.996094 148.542969 93.046875 149.144531 93.132812 C 149.75 93.214844 150.355469 93.328125 150.953125 93.476562 C 151.554688 93.621094 152.152344 93.800781 152.746094 94.007812 C 153.335938 94.214844 153.921875 94.453125 154.496094 94.71875 C 155.074219 94.988281 155.640625 95.28125 156.195312 95.605469 C 156.753906 95.929688 157.296875 96.28125 157.824219 96.65625 C 158.355469 97.035156 158.871094 97.4375 159.371094 97.863281 C 159.871094 98.289062 160.351562 98.742188 160.8125 99.214844 C 161.277344 99.6875 161.71875 100.179688 162.144531 100.695312 C 162.566406 101.207031 162.96875 101.742188 163.347656 102.292969 C 163.722656 102.84375 164.078125 103.40625 164.410156 103.988281 Z M 164.410156 103.988281 " fill-opacity="1" fill-rule="nonzero"/><path fill="#545454" d="M 157.234375 108.066406 C 157.589844 108.691406 157.890625 109.339844 158.132812 110.015625 C 158.375 110.6875 158.554688 111.371094 158.675781 112.066406 C 158.796875 112.761719 158.851562 113.457031 158.84375 114.148438 C 158.835938 114.839844 158.765625 115.515625 158.632812 116.175781 C 158.5 116.835938 158.304688 117.46875 158.050781 118.074219 C 157.796875 118.675781 157.484375 119.242188 157.117188 119.765625 C 156.75 120.292969 156.335938 120.765625 155.871094 121.191406 C 155.40625 121.617188 154.902344 121.984375 154.359375 122.292969 C 153.816406 122.601562 153.242188 122.847656 152.640625 123.027344 C 152.035156 123.210938 151.414062 123.324219 150.777344 123.371094 C 150.136719 123.417969 149.496094 123.394531 148.84375 123.304688 C 148.195312 123.214844 147.550781 123.058594 146.917969 122.835938 C 146.28125 122.613281 145.664062 122.328125 145.066406 121.980469 C 144.46875 121.632812 143.902344 121.230469 143.367188 120.769531 C 142.828125 120.3125 142.332031 119.804688 141.878906 119.253906 C 141.425781 118.699219 141.019531 118.113281 140.664062 117.488281 C 140.308594 116.863281 140.011719 116.214844 139.769531 115.539062 C 139.527344 114.867188 139.34375 114.183594 139.226562 113.488281 C 139.105469 112.792969 139.050781 112.097656 139.054688 111.40625 C 139.0625 110.714844 139.132812 110.039062 139.265625 109.378906 C 139.398438 108.71875 139.59375 108.085938 139.847656 107.480469 C 140.105469 106.878906 140.414062 106.3125 140.78125 105.789062 C 141.148438 105.265625 141.5625 104.789062 142.027344 104.363281 C 142.492188 103.9375 142.996094 103.570312 143.542969 103.261719 C 144.085938 102.953125 144.660156 102.707031 145.261719 102.527344 C 145.863281 102.34375 146.484375 102.230469 147.125 102.183594 C 147.761719 102.136719 148.40625 102.160156 149.054688 102.25 C 149.707031 102.339844 150.347656 102.496094 150.984375 102.71875 C 151.621094 102.941406 152.238281 103.226562 152.835938 103.574219 C 153.433594 103.921875 154 104.324219 154.535156 104.785156 C 155.070312 105.242188 155.566406 105.75 156.019531 106.300781 C 156.476562 106.855469 156.878906 107.441406 157.234375 108.066406 Z M 157.234375 108.066406 " fill-opacity="1" fill-rule="nonzero"/><path fill="#545454" d="M 205.273438 479.90625 C 205.273438 479.90625 229.074219 478.664062 243.992188 459.824219 C 243.992188 459.824219 247.300781 462.722656 246.347656 466.574219 C 246.347656 466.574219 237.566406 483.878906 210.203125 485.824219 C 210.183594 485.839844 207.03125 485.089844 205.273438 479.90625 Z M 205.273438 479.90625 " fill-opacity="1" fill-rule="nonzero"/><path fill="#545454" d="M 151.925781 489.234375 C 151.925781 489.234375 140.964844 486.777344 130.667969 486.335938 C 116.054688 485.722656 110.992188 488.707031 110.992188 488.707031 C 110.992188 488.707031 109.03125 486.863281 108.824219 482.515625 C 108.824219 482.515625 108.859375 482.515625 108.878906 482.480469 C 110.222656 482.074219 131.023438 475.714844 151.925781 482.480469 C 151.960938 482.515625 151.960938 482.515625 151.976562 482.515625 C 151.976562 482.515625 153.648438 486.660156 151.925781 489.234375 Z M 151.925781 489.234375 " fill-opacity="1" fill-rule="nonzero"/><path fill="#d9d9d9" d="M 238.988281 260.277344 L 260.785156 252.273438 L 261.289062 253.648438 L 239.492188 261.652344 Z M 238.988281 260.277344 " fill-opacity="1" fill-rule="nonzero"/><path fill="#545454" d="M 211.839844 366.035156 C 211.839844 366.035156 208.496094 360.851562 197.824219 358.089844 C 187.390625 355.394531 182.359375 356.707031 182.359375 356.707031 C 182.359375 356.707031 181.746094 353.296875 183.265625 351.421875 C 183.265625 351.421875 183.347656 351.421875 183.46875 351.421875 C 185.71875 351.304688 204.355469 350.65625 213.96875 360.867188 C 213.96875 360.867188 214.003906 360.988281 214.003906 361.191406 C 214.089844 362.164062 214.125 365.011719 211.839844 366.035156 Z M 211.839844 366.035156 " fill-opacity="1" fill-rule="nonzero"/><path fill="#a6a6a6" d="M 182.394531 315.398438 C 182.035156 315.398438 181.695312 315.191406 181.507812 314.851562 C 181.253906 314.359375 181.457031 313.777344 181.933594 313.523438 C 182.15625 313.421875 187.339844 310.8125 193.355469 311.460938 C 193.902344 311.511719 194.292969 312.003906 194.226562 312.550781 C 194.175781 313.097656 193.664062 313.488281 193.136719 313.421875 C 187.695312 312.839844 182.871094 315.261719 182.820312 315.277344 C 182.703125 315.363281 182.546875 315.398438 182.394531 315.398438 Z M 182.394531 315.398438 " fill-opacity="1" fill-rule="nonzero"/><path fill="#a6a6a6" d="M 177.808594 289.414062 C 177.535156 289.414062 177.261719 289.3125 177.074219 289.089844 C 177.039062 289.054688 173.953125 285.664062 170.425781 283.703125 C 169.949219 283.429688 169.777344 282.832031 170.035156 282.355469 C 170.289062 281.878906 170.902344 281.707031 171.378906 281.964844 C 175.199219 284.09375 178.40625 287.605469 178.542969 287.761719 C 178.898438 288.167969 178.882812 288.785156 178.472656 289.160156 C 178.285156 289.328125 178.046875 289.414062 177.808594 289.414062 Z M 177.808594 289.414062 " fill-opacity="1" fill-rule="nonzero"/><path fill="#a6a6a6" d="M 86.542969 325.234375 C 86.082031 325.234375 85.671875 324.910156 85.570312 324.433594 C 85.46875 323.90625 85.808594 323.375 86.355469 323.273438 C 86.558594 323.242188 91.195312 322.355469 94.691406 323.222656 C 95.21875 323.359375 95.542969 323.886719 95.40625 324.417969 C 95.273438 324.945312 94.742188 325.269531 94.214844 325.132812 C 91.144531 324.367188 86.78125 325.203125 86.746094 325.21875 C 86.679688 325.21875 86.609375 325.234375 86.542969 325.234375 Z M 86.542969 325.234375 " fill-opacity="1" fill-rule="nonzero"/><path fill="#a6a6a6" d="M 24.003906 130.460938 C 24.003906 130.460938 7.65625 164.902344 24.535156 199.800781 Z M 24.003906 130.460938 " fill-opacity="1" fill-rule="nonzero"/><path fill="#a6a6a6" d="M 135.304688 331.132812 C 134.792969 331.132812 134.367188 330.742188 134.316406 330.230469 C 134.265625 329.683594 134.671875 329.207031 135.21875 329.171875 L 167.40625 326.582031 C 167.953125 326.53125 168.429688 326.941406 168.464844 327.484375 C 168.515625 328.03125 168.105469 328.507812 167.5625 328.542969 L 135.371094 331.132812 C 135.355469 331.132812 135.320312 331.132812 135.304688 331.132812 Z M 135.304688 331.132812 " fill-opacity="1" fill-rule="nonzero"/><path fill="#a6a6a6" d="M 136.121094 337.542969 C 135.609375 337.542969 135.183594 337.152344 135.132812 336.640625 C 135.082031 336.09375 135.492188 335.617188 136.035156 335.585938 L 168.226562 332.992188 C 168.773438 332.941406 169.25 333.351562 169.285156 333.894531 C 169.335938 334.441406 168.925781 334.917969 168.378906 334.953125 L 136.191406 337.542969 C 136.171875 337.542969 136.15625 337.542969 136.121094 337.542969 Z M 136.121094 337.542969 " fill-opacity="1" fill-rule="nonzero"/><path fill="#545454" d="M 133.019531 334.699219 C 133.019531 335.066406 132.984375 335.429688 132.910156 335.789062 C 132.839844 336.148438 132.734375 336.5 132.59375 336.835938 C 132.453125 337.175781 132.28125 337.5 132.078125 337.804688 C 131.871094 338.109375 131.640625 338.390625 131.382812 338.652344 C 131.121094 338.910156 130.839844 339.144531 130.535156 339.347656 C 130.226562 339.550781 129.90625 339.722656 129.566406 339.863281 C 129.226562 340.003906 128.878906 340.109375 128.519531 340.183594 C 128.15625 340.253906 127.792969 340.289062 127.425781 340.289062 C 127.058594 340.289062 126.695312 340.253906 126.335938 340.183594 C 125.976562 340.109375 125.625 340.003906 125.285156 339.863281 C 124.949219 339.722656 124.625 339.550781 124.320312 339.347656 C 124.015625 339.144531 123.730469 338.910156 123.472656 338.652344 C 123.214844 338.390625 122.980469 338.109375 122.777344 337.804688 C 122.574219 337.5 122.402344 337.175781 122.261719 336.835938 C 122.121094 336.5 122.015625 336.148438 121.941406 335.789062 C 121.871094 335.429688 121.835938 335.066406 121.835938 334.699219 C 121.835938 334.332031 121.871094 333.96875 121.941406 333.605469 C 122.015625 333.246094 122.121094 332.898438 122.261719 332.558594 C 122.402344 332.21875 122.574219 331.894531 122.777344 331.589844 C 122.980469 331.285156 123.214844 331.003906 123.472656 330.742188 C 123.730469 330.484375 124.015625 330.25 124.320312 330.046875 C 124.625 329.84375 124.949219 329.671875 125.285156 329.53125 C 125.625 329.390625 125.976562 329.285156 126.335938 329.214844 C 126.695312 329.140625 127.058594 329.105469 127.425781 329.105469 C 127.792969 329.105469 128.15625 329.140625 128.519531 329.214844 C 128.878906 329.285156 129.226562 329.390625 129.566406 329.53125 C 129.90625 329.671875 130.226562 329.84375 130.535156 330.046875 C 130.839844 330.253906 131.121094 330.484375 131.382812 330.742188 C 131.640625 331.003906 131.871094 331.285156 132.078125 331.589844 C 132.28125 331.894531 132.453125 332.21875 132.59375 332.558594 C 132.734375 332.898438 132.839844 333.246094 132.910156 333.605469 C 132.984375 333.96875 133.019531 334.332031 133.019531 334.699219 Z M 133.019531 334.699219 " fill-opacity="1" fill-rule="nonzero"/><path fill="#a6a6a6" d="M 128.09375 347.179688 C 127.582031 347.179688 127.152344 346.785156 127.101562 346.273438 C 127.050781 345.730469 127.460938 345.25 128.007812 345.199219 L 168.480469 341.890625 C 169.027344 341.839844 169.503906 342.25 169.554688 342.796875 C 169.605469 343.339844 169.199219 343.820312 168.652344 343.871094 L 128.175781 347.179688 C 128.144531 347.179688 128.109375 347.179688 128.09375 347.179688 Z M 128.09375 347.179688 " fill-opacity="1" fill-rule="nonzero"/><path fill="#545454" d="M 132.167969 351.390625 C 132.167969 351.609375 132.125 351.820312 132.039062 352.023438 C 131.957031 352.222656 131.835938 352.402344 131.683594 352.558594 C 131.527344 352.714844 131.347656 352.832031 131.144531 352.917969 C 130.941406 353 130.730469 353.042969 130.511719 353.042969 C 130.292969 353.042969 130.082031 353 129.878906 352.917969 C 129.675781 352.832031 129.5 352.714844 129.34375 352.558594 C 129.1875 352.402344 129.070312 352.222656 128.984375 352.023438 C 128.902344 351.820312 128.859375 351.609375 128.859375 351.390625 C 128.859375 351.167969 128.902344 350.957031 128.984375 350.757812 C 129.070312 350.554688 129.1875 350.375 129.34375 350.21875 C 129.5 350.066406 129.675781 349.945312 129.878906 349.859375 C 130.082031 349.777344 130.292969 349.734375 130.511719 349.734375 C 130.730469 349.734375 130.941406 349.777344 131.144531 349.859375 C 131.347656 349.945312 131.527344 350.066406 131.683594 350.21875 C 131.835938 350.375 131.957031 350.554688 132.039062 350.757812 C 132.125 350.957031 132.167969 351.167969 132.167969 351.390625 Z M 132.167969 351.390625 " fill-opacity="1" fill-rule="nonzero"/><path fill="#545454" d="M 144.375 350.296875 C 144.375 350.515625 144.332031 350.726562 144.25 350.929688 C 144.164062 351.132812 144.042969 351.3125 143.890625 351.46875 C 143.734375 351.621094 143.554688 351.742188 143.351562 351.824219 C 143.152344 351.910156 142.941406 351.953125 142.71875 351.953125 C 142.5 351.953125 142.289062 351.910156 142.085938 351.824219 C 141.886719 351.742188 141.707031 351.621094 141.550781 351.46875 C 141.394531 351.3125 141.277344 351.132812 141.191406 350.929688 C 141.109375 350.726562 141.066406 350.515625 141.066406 350.296875 C 141.066406 350.078125 141.109375 349.867188 141.191406 349.664062 C 141.277344 349.460938 141.394531 349.285156 141.550781 349.128906 C 141.707031 348.972656 141.886719 348.855469 142.085938 348.769531 C 142.289062 348.6875 142.5 348.644531 142.71875 348.644531 C 142.941406 348.644531 143.152344 348.6875 143.351562 348.769531 C 143.554688 348.855469 143.734375 348.972656 143.890625 349.128906 C 144.042969 349.285156 144.164062 349.460938 144.25 349.664062 C 144.332031 349.867188 144.375 350.078125 144.375 350.296875 Z M 144.375 350.296875 " fill-opacity="1" fill-rule="nonzero"/><path fill="#545454" d="M 157.417969 349.191406 C 157.417969 349.410156 157.375 349.621094 157.292969 349.824219 C 157.207031 350.023438 157.085938 350.203125 156.933594 350.359375 C 156.777344 350.515625 156.597656 350.632812 156.394531 350.71875 C 156.195312 350.800781 155.984375 350.84375 155.761719 350.84375 C 155.542969 350.84375 155.332031 350.800781 155.128906 350.71875 C 154.925781 350.632812 154.75 350.515625 154.59375 350.359375 C 154.4375 350.203125 154.320312 350.023438 154.234375 349.824219 C 154.152344 349.621094 154.109375 349.410156 154.109375 349.191406 C 154.109375 348.96875 154.152344 348.757812 154.234375 348.558594 C 154.320312 348.355469 154.4375 348.175781 154.59375 348.019531 C 154.75 347.863281 154.925781 347.746094 155.128906 347.660156 C 155.332031 347.578125 155.542969 347.535156 155.761719 347.535156 C 155.984375 347.535156 156.195312 347.578125 156.394531 347.660156 C 156.597656 347.746094 156.777344 347.863281 156.933594 348.019531 C 157.085938 348.175781 157.207031 348.355469 157.292969 348.558594 C 157.375 348.757812 157.417969 348.96875 157.417969 349.191406 Z M 157.417969 349.191406 " fill-opacity="1" fill-rule="nonzero"/><path fill="#545454" d="M 169.828125 347.742188 C 169.828125 347.960938 169.785156 348.171875 169.703125 348.375 C 169.617188 348.574219 169.5 348.753906 169.34375 348.910156 C 169.1875 349.066406 169.011719 349.183594 168.808594 349.269531 C 168.605469 349.351562 168.394531 349.394531 168.175781 349.394531 C 167.957031 349.394531 167.746094 349.351562 167.542969 349.269531 C 167.339844 349.183594 167.160156 349.066406 167.003906 348.910156 C 166.851562 348.753906 166.730469 348.574219 166.648438 348.375 C 166.5625 348.171875 166.519531 347.960938 166.519531 347.742188 C 166.519531 347.519531 166.5625 347.308594 166.648438 347.109375 C 166.730469 346.90625 166.851562 346.726562 167.003906 346.570312 C 167.160156 346.414062 167.339844 346.296875 167.542969 346.210938 C 167.746094 346.128906 167.957031 346.085938 168.175781 346.085938 C 168.394531 346.085938 168.605469 346.128906 168.808594 346.210938 C 169.011719 346.296875 169.1875 346.414062 169.34375 346.570312 C 169.5 346.726562 169.617188 346.90625 169.703125 347.109375 C 169.785156 347.308594 169.828125 347.519531 169.828125 347.742188 Z M 169.828125 347.742188 " fill-opacity="1" fill-rule="nonzero"/><path fill="#a6a6a6" d="M 152.878906 292.089844 L 171.703125 290.324219 L 172.207031 295.6875 L 153.382812 297.453125 Z M 152.878906 292.089844 " fill-opacity="1" fill-rule="nonzero"/><path fill="#545454" d="M 229.519531 416.789062 C 218.964844 421.222656 192.179688 431.28125 174.296875 428.078125 C 173.886719 426.40625 173.5625 424.820312 173.390625 423.304688 C 191.394531 426.644531 218.316406 416.5 228.785156 412.101562 C 228.957031 413.652344 229.160156 415.207031 229.519531 416.789062 Z M 229.519531 416.789062 " fill-opacity="1" fill-rule="nonzero"/><path fill="#545454" d="M 153.496094 422.691406 C 153.445312 422.894531 153.410156 423.097656 153.375 423.269531 C 153.207031 424.207031 153.050781 425.640625 152.933594 427.464844 C 142.394531 423.015625 117.675781 413.652344 100.148438 415.820312 C 100.183594 414.726562 100.234375 413.773438 100.316406 412.9375 C 100.371094 412.375 100.472656 411.796875 100.574219 411.148438 C 117.980469 408.84375 142.6875 418.121094 153.496094 422.691406 Z M 153.496094 422.691406 " fill-opacity="1" fill-rule="nonzero"/><path fill="#a6a6a6" d="M 125.261719 170.613281 L 126.421875 166.914062 L 105.757812 149.539062 L 104.597656 153.242188 Z M 125.261719 170.613281 " fill-opacity="1" fill-rule="nonzero"/><path fill="#a6a6a6" d="M 112.953125 174.210938 L 109.984375 171.703125 L 118.066406 145.941406 L 121.035156 148.449219 Z M 112.953125 174.210938 " fill-opacity="1" fill-rule="nonzero"/><path fill="#a6a6a6" d="M 63.644531 189.914062 L 64.804688 186.195312 L 44.140625 168.824219 L 42.980469 172.523438 Z M 63.644531 189.914062 " fill-opacity="1" fill-rule="nonzero"/><path fill="#a6a6a6" d="M 51.335938 193.496094 L 48.367188 191.003906 L 56.449219 165.242188 L 59.417969 167.734375 Z M 51.335938 193.496094 " fill-opacity="1" fill-rule="nonzero"/><path fill="#a6a6a6" d="M 87.15625 223.65625 C 86.644531 223.65625 86.132812 223.484375 85.722656 223.125 C 84.804688 222.34375 84.699219 220.945312 85.484375 220.023438 C 86.117188 219.289062 101.273438 201.949219 126.011719 206.042969 C 127.207031 206.246094 128.023438 207.371094 127.820312 208.566406 C 127.613281 209.757812 126.488281 210.578125 125.296875 210.375 C 103.0625 206.707031 88.964844 222.71875 88.828125 222.886719 C 88.382812 223.398438 87.769531 223.65625 87.15625 223.65625 Z M 87.15625 223.65625 " fill-opacity="1" fill-rule="nonzero"/><path fill="#545454" d="M 203.417969 75.425781 L 223.363281 30.738281 L 208.105469 21.210938 L 197.039062 71.777344 C 198.132812 72.851562 203.417969 75.425781 203.417969 75.425781 Z M 203.417969 75.425781 " fill-opacity="1" fill-rule="nonzero"/><path fill="#545454" d="M 208.019531 83.523438 L 245.496094 52.050781 L 258.859375 64.105469 L 213.289062 88.65625 C 211.941406 87.890625 208.019531 83.523438 208.019531 83.523438 Z M 208.019531 83.523438 " fill-opacity="1" fill-rule="nonzero"/><path fill="#545454" d="M 10.996094 529.164062 L 780.914062 529.164062 L 780.914062 531.140625 L 10.996094 531.140625 Z M 10.996094 529.164062 " fill-opacity="1" fill-rule="nonzero"/><path fill="#d9d9d9" d="M 705.777344 294.222656 L 651.953125 356.828125 C 649.515625 359.65625 651.066406 363.988281 654.75 364.636719 L 738.054688 379.164062 C 742.023438 379.863281 745.28125 376.179688 743.902344 372.566406 L 714.421875 295.449219 C 713.09375 291.953125 708.285156 291.289062 705.777344 294.222656 Z M 705.777344 294.222656 " fill-opacity="1" fill-rule="nonzero"/><path fill="#545454" d="M 697.441406 361.261719 C 694.867188 360.816406 693.230469 358.53125 693.691406 356.042969 C 694.167969 353.554688 696.539062 351.933594 699.113281 352.359375 C 701.636719 352.769531 703.289062 355.054688 702.8125 357.5625 C 702.335938 360.085938 699.949219 361.6875 697.441406 361.261719 Z M 705.234375 318.550781 C 707.328125 318.859375 708.695312 320.785156 708.25 322.78125 L 703.304688 345.625 C 702.964844 347.230469 701.363281 348.285156 699.691406 348.011719 C 698.039062 347.742188 696.914062 346.238281 697.167969 344.621094 L 700.832031 321.65625 C 701.175781 319.644531 703.152344 318.246094 705.234375 318.550781 Z M 705.234375 318.550781 " fill-opacity="1" fill-rule="nonzero"/></svg>