<svg xmlns="http://www.w3.org/2000/svg" xmlns:xlink="http://www.w3.org/1999/xlink" width="201" zoomAndPan="magnify" viewBox="0 0 150.75 170.249993" height="227" preserveAspectRatio="xMidYMid meet" version="1.0"><defs><clipPath id="4ff7da5bc6"><path d="M 0.207031 0 L 150.296875 0 L 150.296875 168.757812 L 0.207031 168.757812 Z M 0.207031 0 " clip-rule="nonzero"/></clipPath></defs><g clip-path="url(#4ff7da5bc6)"><path fill="#ffffff" d="M 142.476562 71.453125 L 23.558594 2.796875 C 18.699219 -0.0117188 12.894531 -0.0117188 8.03125 2.796875 C 7.992188 2.820312 7.957031 2.84375 7.917969 2.867188 C 7.847656 2.910156 7.777344 2.949219 7.710938 2.996094 C 3.046875 5.835938 0.269531 10.757812 0.269531 16.242188 L 0.269531 153.554688 C 0.269531 159.167969 3.171875 164.195312 8.03125 167 C 10.464844 168.40625 13.128906 169.105469 15.796875 169.105469 C 18.460938 169.105469 21.128906 168.40625 23.558594 167 L 142.476562 98.34375 C 147.335938 95.539062 150.242188 90.511719 150.242188 84.898438 C 150.242188 79.285156 147.335938 74.257812 142.476562 71.453125 Z M 10.261719 154.722656 C 10.191406 154.363281 10.144531 153.976562 10.144531 153.554688 L 10.144531 16.242188 C 10.144531 15.503906 10.269531 14.859375 10.46875 14.300781 L 77.679688 84.402344 Z M 24.675781 14.84375 L 101.722656 59.328125 L 84.523438 77.265625 Z M 22.546875 156.183594 L 84.519531 91.539062 L 102.332031 110.117188 Z M 137.539062 89.792969 L 111.140625 105.03125 L 91.363281 84.402344 L 110.527344 64.410156 L 137.539062 80.003906 C 140.085938 81.476562 140.363281 83.917969 140.363281 84.898438 C 140.363281 85.878906 140.085938 88.320312 137.539062 89.792969 Z M 137.539062 89.792969 " fill-opacity="1" fill-rule="nonzero"/></g></svg>