<svg xmlns="http://www.w3.org/2000/svg" xmlns:xlink="http://www.w3.org/1999/xlink" width="201" zoomAndPan="magnify" viewBox="0 0 150.75 170.249993" height="227" preserveAspectRatio="xMidYMid meet" version="1.0"><path fill="#ffffff" d="M 39.503906 51.269531 C 27.105469 55.390625 17.382812 65.589844 13.503906 78.589844 C 10.464844 88.792969 8.542969 105.753906 16.824219 128.472656 C 16.902344 128.714844 25.066406 151.152344 45.066406 163.273438 C 54.90625 169.273438 67.226562 168.996094 76.425781 162.632812 L 76.785156 162.394531 C 77.144531 162.113281 77.507812 161.875 77.828125 161.632812 C 78.347656 161.195312 78.945312 160.996094 79.546875 160.996094 C 80.144531 160.996094 80.707031 161.195312 81.226562 161.554688 C 81.707031 161.953125 82.1875 162.3125 82.585938 162.554688 L 82.667969 162.59375 C 91.867188 168.996094 104.1875 169.234375 114.027344 163.234375 C 131.949219 152.355469 140.308594 133.351562 141.949219 129.234375 C 141.589844 129.234375 141.226562 129.234375 140.867188 129.234375 L 140.789062 129.234375 C 131.269531 129.234375 122.269531 125.511719 115.546875 118.792969 C 108.789062 112.03125 105.027344 103.070312 105.027344 93.511719 C 104.988281 76.671875 116.789062 62.269531 132.75 58.589844 C 128.90625 55.3125 124.46875 52.789062 119.667969 51.191406 C 98.425781 44.148438 83.226562 59.03125 81.585938 60.75 L 81.507812 60.832031 C 80.464844 61.871094 78.746094 61.871094 77.707031 60.832031 L 77.625 60.75 C 75.90625 59.109375 60.746094 44.230469 39.503906 51.269531 Z M 39.503906 51.269531 " fill-opacity="1" fill-rule="evenodd"/><path fill="#ffffff" d="M 87.945312 8.789062 C 82.226562 14.507812 79.464844 22.988281 79.988281 32.828125 C 89.867188 33.351562 98.347656 30.550781 104.066406 24.789062 C 109.789062 19.070312 112.585938 10.589844 112.027344 0.75 C 102.148438 0.230469 93.667969 3.027344 87.945312 8.789062 Z M 87.945312 8.789062 " fill-opacity="1" fill-rule="evenodd"/></svg>